<svg xmlns="http://www.w3.org/2000/svg" viewBox="0 0 438.63 329.79"><defs><style>.cls-1{isolation:isolate;}.cls-2,.cls-3{fill:#e4f6e2;}.cls-11,.cls-19,.cls-3,.cls-4{mix-blend-mode:multiply;}.cls-4{fill:#ddecff;}.cls-5{fill:#abe0a9;}.cls-6{fill:#223a7a;}.cls-24,.cls-7{fill:#fff;}.cls-8{fill:#b3c3b4;}.cls-9{fill:#ff9d8c;}.cls-10{fill:#8593b6;}.cls-12{fill:#8e9bbb;}.cls-13{fill:#dee1eb;}.cls-14{fill:#818fb3;}.cls-15{fill:#43588e;}.cls-16{fill:#d9dee8;}.cls-17{fill:#596b9b;}.cls-18{fill:#7a89af;}.cls-19{fill:#bdc4d7;}.cls-20{fill:#6f7fa9;}.cls-21{fill:#9ca6c3;}.cls-22{fill:#d2e6ff;}.cls-23{fill:#ff5f42;}.cls-24{font-size:12px;font-family:Quicksand-Bold, Quicksand Bold;font-weight:700;}.cls-25{fill:#67acff;}</style></defs><g class="cls-1"><g id="BACKGROUND"><path class="cls-2" d="M83.72,321.45S29.1,282.56,13.37,216.35s8.28-146.48,53.8-187S194.62,16.07,231,50l36.41,33.93s34.76,19,80.28,17.38,86.07,60.41,96.83,109.24-14.9,113.38-14.9,113.38Z" transform="translate(-8.55 -9.05)"/><path class="cls-3" d="M58.89,331.38s-38.07-20.69-48-68.69S44,170.83,48.13,146.83s-5-53.79,33.11-77S187.17,55,212.82,49.18,268.27,3.66,319.58,12.76s101,36.42,103.45,96-16.55,61.25,2.48,93.52S452,256.9,442.89,290s-28.14,42.2-28.14,42.2Z" transform="translate(-8.55 -9.05)"/><path class="cls-4" d="M138.38,320.63c-2.37-2.49-37.1-72,1.58-135.73s135.77-56.27,174.45-31.45,57.62,57.11,61.57,91-22.1,86.89-22.1,86.89Z" transform="translate(-8.55 -9.05)"/></g><g id="OBJECTS"><rect class="cls-5" x="352.54" y="162.27" width="54.62" height="32.28" rx="5"/><polygon class="cls-5" points="379.85 207.17 386.93 190.41 372.78 190.41 379.85 207.17"/><polygon class="cls-6" points="379.69 172.87 392.46 172.87 392.46 174.74 398.72 171.13 392.46 167.51 392.46 169.38 379.69 169.38 379.69 172.87"/><polygon class="cls-7" points="398.72 180.21 385.95 180.21 385.95 178.34 379.69 181.95 385.95 185.56 385.95 183.69 398.72 183.69 398.72 180.21"/><path class="cls-6" d="M380.4,192.54l-.61.22a19.45,19.45,0,0,1-2.88-4.52,16.33,16.33,0,0,1-1-5.23l.45-.19-2.7-6.46a5.2,5.2,0,0,0-1.31,1.49c-1.53,2.58-1.38,6.54.16,10.41s3.18,7.33,6.18,9.5a5.87,5.87,0,0,0,4.46,1.32Z" transform="translate(-8.55 -9.05)"/><path class="cls-6" d="M382.34,191.78l-.84.31,2.76,6.61a4.08,4.08,0,0,0,.84-.36,1.61,1.61,0,0,0,.73-2l-1.45-3.64A1.6,1.6,0,0,0,382.34,191.78Z" transform="translate(-8.55 -9.05)"/><path class="cls-6" d="M375.75,175.22a6.94,6.94,0,0,0-1.08.51l2.75,6.6.93-.38a1.61,1.61,0,0,0,.88-2.07l-1.45-3.72A1.6,1.6,0,0,0,375.75,175.22Z" transform="translate(-8.55 -9.05)"/><path class="cls-8" d="M125.48,309.45V235s-.83-20.07,9.72-25.86,55-2.69,55-2.69v103Z" transform="translate(-8.55 -9.05)"/><path class="cls-9" d="M204.13,136.69s-2.69,22.56-3.72,24.42l-1,1.86-5.17,3.52s9.93,14.07,22.14,16.34,11.17-5,11.17-5l-1.86-3.93,2.48-21.52S206,142.28,204.13,136.69Z" transform="translate(-8.55 -9.05)"/><path class="cls-5" d="M187.79,168.35l8.07-3.52S201,173.32,213,178.28s12.21,2.07,12.83,0a7.84,7.84,0,0,0-.21-4.34l.89-7.25,4.8,1.6L248,303l-42.82,2.07Z" transform="translate(-8.55 -9.05)"/><path class="cls-6" d="M227.3,166.83s2.9,6.69,5.59,22.42,5.17,42.2,5.79,60.41,1,59.79,1,59.79h54c.62,0,4.34-20.48,4.34-20.48s-23.58-20.21-24.82-23.52c-.83-2.2-.42-43.1-3.94-61.93s-8.06-22.62-17.58-27.31C241.88,171.37,227.3,166.83,227.3,166.83Z" transform="translate(-8.55 -9.05)"/><path class="cls-10" d="M255.44,285.75a.51.51,0,0,1-.5-.5c0-1.48-.26-22.5-.51-42.82s-.52-41.35-.52-42.84a.5.5,0,0,1,.5-.5.5.5,0,0,1,.5.5c0,1.48.26,22.5.51,42.82s.52,41.35.52,42.84A.5.5,0,0,1,255.44,285.75Z" transform="translate(-8.55 -9.05)"/><path class="cls-6" d="M147.86,280.69l-.42,28.76h62.9S213,285,212,282.76,147.86,280.69,147.86,280.69Z" transform="translate(-8.55 -9.05)"/><g class="cls-11"><path class="cls-12" d="M217.86,160.49a32.93,32.93,0,0,0,8.8,4.72l1.47-12.79s-16.63-7.62-22.27-13.29C207,145.57,209.94,154.11,217.86,160.49Z" transform="translate(-8.55 -9.05)"/></g><path class="cls-9" d="M247.58,94.69a44.65,44.65,0,0,1,5.17,16.56c.83,9.1,0,32.48-7.45,42.41s-23,7-30,1c-6.45-5.5-12.82-11.58-14.48-23.58S204.34,96.35,219,91.59,247.58,94.69,247.58,94.69Z" transform="translate(-8.55 -9.05)"/><path class="cls-9" d="M266.25,296.45s-.73,0-1.84,0h-.85l-3.68-.1-.88,0c-1.3,0-2.41.13-3.45.07h0c-.22,0-.54,0-.8,0a1.94,1.94,0,0,1-.33,0,4.86,4.86,0,0,1-1.37-.54A93,93,0,0,0,231.56,293c-9.24,0-17.53.67-18.88-.46s-2.18-12.76,5.71-13.52l9.7,3.68s22.15-2.63,30.27,3.36S266.25,296.45,266.25,296.45Z" transform="translate(-8.55 -9.05)"/><path class="cls-6" d="M255.52,296.35c-.22,0-.54,0-.8,0a9.39,9.39,0,0,0-.85-1.14c-2.5-2.55-8.54-4.2-10.73-4.73a.38.38,0,0,1-.28-.45.38.38,0,0,1,.46-.28c3.19.77,10,2.74,11.88,6C255.26,295.84,255.42,296.15,255.52,296.35Z" transform="translate(-8.55 -9.05)"/><path class="cls-6" d="M259.88,296.31l-.88,0c-2.73-5-7.2-6.4-12.72-8.18L246,288a.37.37,0,1,1,.23-.71l.32.11C252.35,289.25,257,290.76,259.88,296.31Z" transform="translate(-8.55 -9.05)"/><path class="cls-6" d="M264.41,296.42h-.85a21.82,21.82,0,0,0-14.39-10.67.38.38,0,0,1-.31-.44.4.4,0,0,1,.44-.3C256.77,286.41,262.79,292.51,264.41,296.42Z" transform="translate(-8.55 -9.05)"/><path class="cls-6" d="M205.79,120.87a19.44,19.44,0,0,0,7.76-8.28A23.59,23.59,0,0,0,216.34,101s5.79-.94,14.48,1.65,19,6.1,27.73,1.14,8.69-12.93,4.44-16.24c-4.75-3.71-14.17-1.45-14.17-1.45s3.62-3.52,1.66-5.59-9.11.62-9.11.62-8.69-6.93-25.13-6.1S191.93,87.35,191,100.18s3.73,25.65,3.73,25.65Z" transform="translate(-8.55 -9.05)"/><g class="cls-11"><path class="cls-12" d="M239.16,124c-.93,2.29-.91,5-1.15,7.4-.18,1.9-.53,4.11,1.21,5.39.83.61,4.76,2.26,2.74,3.6a5.32,5.32,0,0,1-2.94.33c-.6,0-1.21,0-1.82-.1s-1.28-.24-1.93-.25a.38.38,0,0,0-.19.7,8.16,8.16,0,0,0,3.8.91,5.76,5.76,0,0,0,3.14-.56,2.23,2.23,0,0,0,1.43-1.61,2.55,2.55,0,0,0-1.23-2.21c-.79-.58-1.75-.85-2.54-1.42-1.09-.78-1-2.1-.93-3.32.19-3,.87-5.84,1.13-8.77,0-.44-.58-.44-.72-.09Z" transform="translate(-8.55 -9.05)"/></g><path class="cls-6" d="M247.61,130.86c-.3,1.74-1.57,3-2.83,2.75s-2-1.82-1.72-3.56,1.58-3,2.84-2.75S247.92,129.11,247.61,130.86Z" transform="translate(-8.55 -9.05)"/><path class="cls-6" d="M231.78,129.47c-.28,1.89-1.6,3.25-3,3.05s-2.23-1.89-1.95-3.78,1.61-3.24,3-3S232.06,127.59,231.78,129.47Z" transform="translate(-8.55 -9.05)"/><path class="cls-6" d="M243.93,123.67c1,.16,1.94,0,2.92.06l.7.08c.16,0-.31,0-.08,0l.15,0,.36.08.62.17a2.39,2.39,0,0,0,.59.08l.32-.05-.2,0a3,3,0,0,0,.39,0,1.07,1.07,0,0,0,.74-1.31,1.11,1.11,0,0,0-.21-.42l-.12-.16.11.13-.13-.17a.58.58,0,0,0-.22-.22l-.23-.18a2.83,2.83,0,0,0-.9-.36,7.55,7.55,0,0,0-1.78-.23,13,13,0,0,0-1.76.14,3.46,3.46,0,0,0-1.5.56,1,1,0,0,0-.47,1,1,1,0,0,0,.7.81Z" transform="translate(-8.55 -9.05)"/><path class="cls-6" d="M232.89,120.9a3,3,0,0,0-.4-.21c-.12,0-.44-.22-.2-.09l-.26-.14a6.22,6.22,0,0,0-1.25-.45,8.39,8.39,0,0,0-2.91-.2,6.8,6.8,0,0,0-2.87.9,2.18,2.18,0,0,0-.36.26l-.21.27.06-.09a1,1,0,0,0-.43.84.86.86,0,0,0,.44.75,1.31,1.31,0,0,0,1,0H225a1.82,1.82,0,0,0,.77,0l.11,0,.33,0c.05,0,.37,0,0,0l.18,0,.47,0c.68-.06,1.36-.09,2-.11s1.29,0,1.92,0l.82,0c.15,0,.08,0,0,0l.17,0a2.13,2.13,0,0,1,.33.11,1,1,0,0,0,.74-1.76Z" transform="translate(-8.55 -9.05)"/><path class="cls-6" d="M237.81,149.66a9.3,9.3,0,0,1,4.67-4.21c-1.73-.17-9.92-.93-12,.24-2.32,1.31.42,6.59,5.21,6.85a6.23,6.23,0,0,0,1.39-.08A6.79,6.79,0,0,1,237.81,149.66Z" transform="translate(-8.55 -9.05)"/><path class="cls-13" d="M200,138.56s.83,3.2,5.59,6.93a55.44,55.44,0,0,0,11.66,6.45l.55-2.42s-7.14-3.1-10.45-6.51-3.72-5.28-3.72-5.28Z" transform="translate(-8.55 -9.05)"/><path class="cls-6" d="M218.62,147.74a6,6,0,0,1,6.23,4.81c.27,2-1.57,4.15-5.88,2.22C213.62,152.38,214.79,147.92,218.62,147.74Z" transform="translate(-8.55 -9.05)"/><path class="cls-5" d="M203,114.87s1.66-11.89,9.63-20c15.2-15.41,28.13-14.48,28.13-14.48s-.1-2.17-5-3.83c-4.57-1.55-6.62-.72-6.62-.72s-12.52,1-23.07,12.72-11.69,26.59-11.69,26.59Z" transform="translate(-8.55 -9.05)"/><path class="cls-5" d="M201.86,113.42c-10-1.69-15.52,6.1-15.93,14s5.29,13.84,12.93,13.25C216,139.28,214.06,115.49,201.86,113.42Z" transform="translate(-8.55 -9.05)"/><path class="cls-14" d="M197.61,133a7.62,7.62,0,0,1-6.74-3.65,7,7,0,0,1,.32-7.82.43.43,0,0,1,.57-.1.35.35,0,0,1,.11.52,6.29,6.29,0,0,0-.28,7,6.79,6.79,0,0,0,6.23,3.25,7.43,7.43,0,0,0,6-2.93,7.63,7.63,0,0,0,.9-7.35,6.2,6.2,0,0,0-6.14-3.67.4.4,0,0,1-.46-.32.38.38,0,0,1,.35-.42,7,7,0,0,1,7,4.15,8.38,8.38,0,0,1-1,8,8.29,8.29,0,0,1-6.65,3.26Z" transform="translate(-8.55 -9.05)"/><path class="cls-6" d="M189.65,165.45s-30.21,7.45-40.76,19.45S133.37,256.07,133.17,267s7.45,15.52,12,18.62,24.62,8.69,40.76,9.52,31.44,0,31.44,0a21.54,21.54,0,0,1,2.43-8.69c2.31-4.8,5.23-5.8,5.23-5.8l-13.86-5s-2.43-43.49-6.21-64.55C200.62,187,189.65,165.45,189.65,165.45Z" transform="translate(-8.55 -9.05)"/><path class="cls-10" d="M239.72,268.78a.45.45,0,0,1-.2,0,.5.5,0,0,1-.26-.66c2.83-6.39,5.76-18.92,7.42-27.72l.13-.71c.5-2.59,1.12-5.8-.12-8-.63-1.14-2.06-3.6-3.44-6s-2.77-4.77-3.14-5.46c-.73-1.35,1.56-5,4.88-9.91.9-1.34,1.68-2.49,2.13-3.27,1.18-2.05.39-3.93-.52-6.1l-.31-.75c-.83-2-1.77-4.06-2.68-6l-1.11-2.42L241,188.48a192,192,0,0,0-9.82-19.77.51.51,0,0,1,.17-.69.51.51,0,0,1,.69.18A192,192,0,0,1,242,188.07c.49,1.1,1,2.18,1.47,3.25.36.81.73,1.61,1.1,2.41.92,2,1.86,4,2.7,6.08l.3.73c.93,2.22,1.9,4.51.46,7-.47.81-1.25,2-2.16,3.33-1.73,2.58-5.33,7.95-4.83,8.87.36.68,1.71,3,3.13,5.44s2.81,4.83,3.45,6c1.42,2.54.75,6,.22,8.7l-.13.71c-.6,3.2-3.79,19.6-7.48,27.93A.51.51,0,0,1,239.72,268.78Z" transform="translate(-8.55 -9.05)"/><path class="cls-10" d="M210.24,270.54a.51.51,0,0,1-.36-.15c-2.35-2.37-13.69-22-14.53-25.69-.46-2,.7-7.15,1.82-12.11.87-3.84,1.77-7.81,1.51-8.88-.38-1.61-3.28-4-6.08-6.27-3.39-2.77-6.89-5.63-7.57-8.2-.77-2.93-.11-21.27.32-33.4.16-4.37.28-7.81.28-9a.5.5,0,0,1,.5-.5h0a.5.5,0,0,1,.5.5c0,1.25-.12,4.7-.28,9.07-.41,11.34-1.09,30.32-.35,33.11.59,2.26,4.12,5.14,7.23,7.69s6,4.87,6.42,6.81c.31,1.3-.53,5-1.51,9.33-1,4.63-2.23,9.87-1.82,11.67.83,3.62,12,22.88,14.27,25.21a.49.49,0,0,1,0,.7A.5.5,0,0,1,210.24,270.54Z" transform="translate(-8.55 -9.05)"/><path class="cls-10" d="M169.58,262h-.07a.5.5,0,0,1-.42-.57c.36-2.6,6.1-54.4,6.37-58.36a.48.48,0,0,1,.53-.47.5.5,0,0,1,.46.53c-.26,4-6,55.84-6.37,58.44A.51.51,0,0,1,169.58,262Z" transform="translate(-8.55 -9.05)"/><path class="cls-10" d="M210.75,276l-.19,0c-1.27-.52-6.89-2.42-14-4.81-14.36-4.85-34-11.48-37.76-13.42a.5.5,0,0,1,.46-.89c3.67,1.91,24.1,8.8,37.62,13.36,7.13,2.4,12.76,4.3,14.06,4.83a.5.5,0,0,1,.28.65A.51.51,0,0,1,210.75,276Z" transform="translate(-8.55 -9.05)"/><path class="cls-10" d="M203.85,296.65c-12.64,0-37.14-2.28-55.75-8.86a.5.5,0,0,1,.34-1c23.51,8.32,56.4,9.74,62.51,8.37a.5.5,0,0,1,.6.38.49.49,0,0,1-.38.59A39.4,39.4,0,0,1,203.85,296.65Z" transform="translate(-8.55 -9.05)"/><path class="cls-5" d="M59.21,172.43c3.93,3.45,8.9,5.66,12.34,9.65,1.35,1.57,2.57,3.24,3.83,4.89.91,1.2,3.36,3.18,3.75,4.69.18.66.14-.23,0-.9,0,0,0,0,0-.08-.34-3.05-.58-6.11-.69-9.18s.08-6.13-.11-9.18c-.27-4.31-1.61-8.48-5.14-11.18-1.72-1.32-3.93-2.13-5.51-3.59s-.9-3,0-4.53a15.31,15.31,0,0,0,2.15-4.55A8,8,0,0,0,68.43,143c-2.05-3.44-6.59-7.28-10.89-6.76-3.59.43-4,4.57-3.95,7.45s.33,5.6.36,8.41-.47,5.71-.51,8.58C53.37,165.56,55.63,169.28,59.21,172.43Z" transform="translate(-8.55 -9.05)"/><path class="cls-5" d="M95.66,217.21a47.12,47.12,0,0,1,3.89-7.41c2.11-3.25,4.46-6.41,5.88-10.05s1.24-7.69,1.38-11.61c.1-2.87,1-5.74.73-8.62-.11-1.39-.91-3.62-2.7-3.39-1.39.17-2.22,1.9-2.75,3a50.91,50.91,0,0,0-2.28,6c-.27.79-.53,1.59-.87,2.35-.2.44-.83,1.52-1.43,1.38-1-.25-.09-4.4.06-5.14.76-3.69,1.9-7.12,2.06-10.92.23-5.51-.2-12.07-5.59-15.08-1.4-.79-3.19-1.25-4.53-.08s-1.69,3.18-1.89,4.84c-.6,5.08.6,9.9,2.23,14.69,1.35,4,3,8,3.07,12.25.11,4.07-2,7.67-3,11.52a36.18,36.18,0,0,0-1.26,11.35c0,2.49.08,4.94.26,7.42.17,2.28.36,4.56.64,6.82.06.46.11.94.17,1.42-.87-2.11-1.18-4.52-1.9-6.64-1.29-3.76-2.79-7.45-4-11.23a92.23,92.23,0,0,0-3.34-9.27c-1.26-2.82-2.79-5.8-5.15-7.87a7.52,7.52,0,0,0-5.06-2,13.94,13.94,0,0,0-3.48.74A3.91,3.91,0,0,1,63,191c-3.86-3-5-8.28-7.89-12-2.14-2.81-7.19-7.58-10.91-4.53-2,1.62-2.52,4.76-2.42,7.16a17.35,17.35,0,0,0,3,8.29c1.67,2.68,3.82,5.08,5.35,7.83a8.32,8.32,0,0,1,.91,5,11.87,11.87,0,0,0,.3,5.07c1.77,5,7.3,4.32,11.59,4.45a32.28,32.28,0,0,1,9.1,1.5,10.1,10.1,0,0,1,6.62,6.52c.86,2.36,1.31,5.05,2.92,7.05a7.52,7.52,0,0,0,2.86,2.13c1.67.74,6.79,1.06,6.82.6a23.5,23.5,0,0,1,1.33-4.7C93.51,222.61,94.54,219.9,95.66,217.21Z" transform="translate(-8.55 -9.05)"/><path class="cls-5" d="M119.39,216.27c-.44-2.87-.35-6-1.71-8.65a.39.39,0,0,0-.53-.14c-1,.54-1,2.11-1.09,3.07-.13,1.6,0,3.2-.23,4.79a36,36,0,0,1-2,8.31,8.94,8.94,0,0,1-6.22,5.6,15.71,15.71,0,0,0-5.45,2.41,11.45,11.45,0,0,0-3.19,4.4c-2,4.51-3,9.54-3.9,14.36-.63,3.24-1.14,6.5-1.92,9.71a94.63,94.63,0,0,0-2.09,9.67c-.07.17-.15.33-.22.5-.21.49.56.75.82.35,3.11-4.79,6.89-9.08,12.06-11.71,2.33-1.19,5.43-1.44,7.37-3.31,1.48-1.42,1.68-3.59,1.46-5.52-.29-2.55-1.51-4.64-2.77-6.8-.7-1.19-1.52-2.47-1.24-3.91a5,5,0,0,1,2.52-3.07c2.15-1.33,4.66-1.93,6.42-3.85a10.54,10.54,0,0,0,2.72-6.41A43.65,43.65,0,0,0,119.39,216.27Z" transform="translate(-8.55 -9.05)"/><path class="cls-5" d="M77,232.78a41.08,41.08,0,0,0-9.78-9.05c-2-1.32-6.67-3.92-7.61,0-.56,2.28,1.67,4.53,3.14,6,2.21,2.14,4.76,4,6.63,6.47-2.31.74-4.72.88-6.72,2.48-2.38,1.89-3.44,5.53-1.09,7.85A15.11,15.11,0,0,0,65.7,249c1.85.9,3.74,1.71,5.65,2.5,4.1,1.72,8.26,3.46,11.77,6.27s6.92,7.71,7.21,12.38c0,.45-.15,0,.12-.16.15.13.63-.1.63-.37a49.36,49.36,0,0,0-4.15-19.89A83.37,83.37,0,0,0,77,232.78Z" transform="translate(-8.55 -9.05)"/><path class="cls-15" d="M67.56,168.23c1.51,3.14,3.09,6.2,4.77,9.27a73.81,73.81,0,0,1,4.44,9c1.49,3.87,3,7.69,4.63,11.52a116.7,116.7,0,0,1,4.27,12.2A144.67,144.67,0,0,1,90.5,235a100,100,0,0,1,.5,12.83c-.09,3.34-.46,6.65-.78,10A58.72,58.72,0,0,0,90,268.29c.24,2.9.7,6.35,3,8.42a.52.52,0,0,0,.81-.62c-2.68-5.49-2.53-11.48-2-17.43.28-3.29.67-6.56.79-9.86a99.83,99.83,0,0,0-.42-12.59,149.08,149.08,0,0,0-4.55-24.32,111.49,111.49,0,0,0-4-12c-1.56-3.94-3.36-7.78-4.87-11.74-2.73-7.17-6.89-13.52-10.57-20.2-.2-.35-.7,0-.53.31Z" transform="translate(-8.55 -9.05)"/><path class="cls-15" d="M90.62,226.83c.44-5.22.9-10.24,2.66-15.22.82-2.32,1.81-4.58,2.6-6.91.66-1.93,1.64-4.57,1.13-6.62a.23.23,0,0,0-.45,0c-.34,1.17-.3,2.45-.54,3.65a31.29,31.29,0,0,1-.92,3.45c-.77,2.41-1.78,4.72-2.65,7.1a35.06,35.06,0,0,0-2.19,14.55.18.18,0,0,0,.36,0Z" transform="translate(-8.55 -9.05)"/><path class="cls-15" d="M60.38,196.84c2.07,5,8.3,5.29,12.83,6.41A12,12,0,0,1,80.56,209a44.26,44.26,0,0,1,4.2,10.1s.07,0,.06,0c-1.27-6-3.09-13.22-9.27-16-5-2.24-11.49-1.12-14.66-6.47-.15-.26-.64-.08-.51.22Z" transform="translate(-8.55 -9.05)"/><path class="cls-15" d="M87.35,226c.24.33.47.68.72,1a2.92,2.92,0,0,0,.42.44,1,1,0,0,0,.57.3.13.13,0,0,0,.11-.19,2,2,0,0,0-.43-.4l-.44-.39c-.29-.28-.56-.57-.84-.85-.06-.06-.16,0-.11.08Z" transform="translate(-8.55 -9.05)"/><path class="cls-15" d="M74.48,242.37a49.72,49.72,0,0,1,9.44,10,61.2,61.2,0,0,1,3.43,5.57,61.3,61.3,0,0,1,2.78,6.46c.07.17.38.17.35,0C90,259.74,87,255.79,84.65,252a29.22,29.22,0,0,0-4.42-5.26A38.77,38.77,0,0,0,74.8,242c-.25-.17-.56.22-.32.41Z" transform="translate(-8.55 -9.05)"/><path class="cls-15" d="M102.85,236.38c-1.72,1-1.78,3.69-1.81,5.43-.07,3.33.76,6.46-.71,9.64-1.32,2.87-3.43,5.27-5.09,7.93-1.55,2.5-3.09,5.69-3,8.69,0,.18.26.28.35.1a35.54,35.54,0,0,0,1.29-4.34A18.07,18.07,0,0,1,96,259.35c1.59-2.48,3.55-4.73,4.85-7.39,1.37-2.81,1.17-5.59,1.08-8.63-.06-1.94-.26-5.06,1.31-6.5a.29.29,0,0,0-.35-.45Z" transform="translate(-8.55 -9.05)"/><path class="cls-8" d="M91.34,268.38c-6.93-.09-20.14-.17-20.14-.17l3.27,24.26A11,11,0,0,0,85.37,302H97.31a11,11,0,0,0,10.9-9.54l3.27-24.26S98.27,268.29,91.34,268.38Z" transform="translate(-8.55 -9.05)"/><polygon class="cls-8" points="417.89 214.75 378.34 293.1 263.03 293.93 298.61 213.65 417.89 214.75"/><path class="cls-16" d="M195.05,302.48l0-6.27h74.65l34.34-75.31H423.44l3,2.9H309.82l-35.69,78.62S195.05,302.28,195.05,302.48Z" transform="translate(-8.55 -9.05)"/><path class="cls-16" d="M366.57,267c-1.31,3.91-8.38,6.93-15.8,6.74s-12.37-3.5-11.07-7.41,8.37-6.93,15.79-6.74S367.87,263.12,366.57,267Z" transform="translate(-8.55 -9.05)"/><path class="cls-7" d="M274.13,302.92a.46.46,0,0,1-.2-.05.49.49,0,0,1-.25-.66L309.5,223.3H426.44a.5.5,0,0,1,.5.5.5.5,0,0,1-.5.5H310.14l-35.55,78.33A.52.52,0,0,1,274.13,302.92Z" transform="translate(-8.55 -9.05)"/><rect class="cls-17" x="44.13" y="299.37" width="137.17" height="30.41"/><rect class="cls-18" x="180.52" y="299.37" width="246.8" height="30.41"/><polygon class="cls-19" points="181.3 299.37 180.52 299.37 44.13 299.37 44.13 304.96 180.52 304.96 181.3 304.96 427.32 304.96 427.32 299.37 181.3 299.37"/><rect class="cls-20" x="37.51" y="293.37" width="149.79" height="7.45"/><rect class="cls-21" x="186.52" y="293.37" width="246.8" height="7.45"/><rect class="cls-5" x="92.82" y="98.78" width="59.28" height="35.03" rx="5.43"/><polygon class="cls-5" points="165.9 116.29 147.71 108.62 147.71 123.96 165.9 116.29"/><circle class="cls-6" cx="110.97" cy="116.29" r="3.35"/><circle class="cls-6" cx="122.46" cy="116.29" r="3.35"/><circle class="cls-6" cx="133.95" cy="116.29" r="3.35"/><path class="cls-8" d="M401.75,33.45H290a13,13,0,0,0-13,13v53a13,13,0,0,0,13,13h10c.28,4.81-.41,12-4.42,21.1a56.25,56.25,0,0,0,24.24-21.1h81.95a13,13,0,0,0,13-13v-53A13,13,0,0,0,401.75,33.45Z" transform="translate(-8.55 -9.05)"/><path class="cls-7" d="M354.06,58.73H298.62A2.76,2.76,0,0,1,295.86,56h0a2.76,2.76,0,0,1,2.76-2.76h55.44A2.76,2.76,0,0,1,356.82,56h0A2.76,2.76,0,0,1,354.06,58.73Z" transform="translate(-8.55 -9.05)"/><path class="cls-22" d="M393.82,74.8H297.55a1.69,1.69,0,0,1-1.69-1.69h0a1.69,1.69,0,0,1,1.69-1.69h96.27a1.69,1.69,0,0,1,1.69,1.69h0A1.69,1.69,0,0,1,393.82,74.8Z" transform="translate(-8.55 -9.05)"/><path class="cls-22" d="M393.82,84.18H297.55a1.69,1.69,0,0,1-1.69-1.69h0a1.69,1.69,0,0,1,1.69-1.69h96.27a1.69,1.69,0,0,1,1.69,1.69h0A1.69,1.69,0,0,1,393.82,84.18Z" transform="translate(-8.55 -9.05)"/><path class="cls-22" d="M372.82,94.18H297.55a1.69,1.69,0,0,1-1.69-1.69h0a1.69,1.69,0,0,1,1.69-1.69h75.27a1.69,1.69,0,0,1,1.69,1.69h0A1.69,1.69,0,0,1,372.82,94.18Z" transform="translate(-8.55 -9.05)"/><path class="cls-7" d="M393.07,58.73H366.62A2.76,2.76,0,0,1,363.86,56h0a2.76,2.76,0,0,1,2.76-2.76h26.45A2.76,2.76,0,0,1,395.82,56h0A2.76,2.76,0,0,1,393.07,58.73Z" transform="translate(-8.55 -9.05)"/><rect class="cls-5" x="285.81" y="147.13" width="34.03" height="24.52" rx="2"/><path class="cls-20" d="M311.59,172.1a.78.78,0,0,1-.48-.17l-16.34-13.5a.75.75,0,0,1,1-1.16l15.86,13.1L327,156.92a.75.75,0,0,1,1.06.08.74.74,0,0,1-.08,1.05l-15.93,13.87A.74.74,0,0,1,311.59,172.1Z" transform="translate(-8.55 -9.05)"/><path class="cls-20" d="M295.24,180.14a.73.73,0,0,1-.51-.21.75.75,0,0,1,0-1.06l11.43-12a.75.75,0,1,1,1.09,1l-11.43,12A.75.75,0,0,1,295.24,180.14Z" transform="translate(-8.55 -9.05)"/><path class="cls-20" d="M327.52,179.7a.79.79,0,0,1-.53-.22L315.6,168.06a.75.75,0,0,1,1.07-1.06l11.38,11.42a.75.75,0,0,1,0,1.06A.79.79,0,0,1,327.52,179.7Z" transform="translate(-8.55 -9.05)"/><circle class="cls-23" cx="321.41" cy="146.37" r="10.03"/><text class="cls-24" transform="translate(314.35 150.61)">85</text><rect class="cls-6" x="359.57" y="125.51" width="66.62" height="17.17" rx="4"/><path class="cls-7" d="M376.35,147.64a.78.78,0,0,1-.63-.28.93.93,0,0,1-.21-.7l.25-2.23a.09.09,0,0,0,0-.11.15.15,0,0,0-.15,0l-1.83,1.32a.88.88,0,0,1-.7.19.91.91,0,0,1-.59-.44.86.86,0,0,1-.1-.79,1,1,0,0,1,.52-.48l2.06-.93c.05,0,.08,0,.08-.08s0-.07-.08-.08l-2.06-.93a.83.83,0,0,1-.5-.54.9.9,0,0,1,.08-.73.91.91,0,0,1,.59-.44.94.94,0,0,1,.7.16l1.83,1.35a.15.15,0,0,0,.15,0,.09.09,0,0,0,0-.11l-.25-2.23a.91.91,0,0,1,.23-.7.92.92,0,0,1,1.32,0,.82.82,0,0,1,.19.7l-.25,2.23c0,.05,0,.09,0,.11s.08,0,.14,0l1.83-1.32a.91.91,0,0,1,.72-.19.81.81,0,0,1,.57.44.83.83,0,0,1,.1.79.91.91,0,0,1-.52.48l-2.05.93c-.06,0-.09,0-.09.08s0,.07.09.08l2.05.93a.89.89,0,0,1,.52.54.8.8,0,0,1-.1.73.81.81,0,0,1-.57.44,1,1,0,0,1-.72-.16l-1.83-1.35c-.06,0-.1,0-.14,0s0,.06,0,.11l.25,2.23a.8.8,0,0,1-.21.7A.89.89,0,0,1,376.35,147.64Z" transform="translate(-8.55 -9.05)"/><path class="cls-7" d="M388.48,147.64a.77.77,0,0,1-.63-.28,1,1,0,0,1-.22-.7l.26-2.23c0-.05,0-.09,0-.11s-.08,0-.14,0l-1.83,1.32a.89.89,0,0,1-.7.19.91.91,0,0,1-.6-.44.85.85,0,0,1-.09-.79.91.91,0,0,1,.52-.48l2.05-.93c.06,0,.09,0,.09-.08s0-.07-.09-.08l-2.05-.93a.83.83,0,0,1-.51-.54.94.94,0,0,1,.08-.73.91.91,0,0,1,.6-.44,1,1,0,0,1,.7.16l1.83,1.35c.06,0,.1,0,.14,0s.05-.06,0-.11l-.26-2.23a1,1,0,0,1,.23-.7.85.85,0,0,1,.68-.28.84.84,0,0,1,.84,1l-.25,2.23a.09.09,0,0,0,0,.11.15.15,0,0,0,.15,0l1.82-1.32a.93.93,0,0,1,.72-.19.81.81,0,0,1,.58.44.86.86,0,0,1,.1.79,1,1,0,0,1-.52.48l-2.06.93c-.05,0-.08,0-.08.08s0,.07.08.08l2.06.93a.92.92,0,0,1,.52.54.84.84,0,0,1-.1.73.81.81,0,0,1-.58.44,1,1,0,0,1-.72-.16l-1.82-1.35a.15.15,0,0,0-.15,0,.09.09,0,0,0,0,.11l.25,2.23a.8.8,0,0,1-.21.7A.9.9,0,0,1,388.48,147.64Z" transform="translate(-8.55 -9.05)"/><path class="cls-7" d="M400.6,147.64a.78.78,0,0,1-.63-.28.93.93,0,0,1-.21-.7l.25-2.23c0-.05,0-.09,0-.11s-.08,0-.14,0L398,145.67a.88.88,0,0,1-.7.19.91.91,0,0,1-.59-.44.86.86,0,0,1-.1-.79,1,1,0,0,1,.52-.48l2.06-.93c.05,0,.08,0,.08-.08s0-.07-.08-.08l-2.06-.93a.88.88,0,0,1-.51-.54,1,1,0,0,1,.09-.73.91.91,0,0,1,.59-.44.94.94,0,0,1,.7.16l1.83,1.35c.06,0,.11,0,.14,0s0-.06,0-.11l-.25-2.23a.94.94,0,0,1,.22-.7.87.87,0,0,1,.68-.28.83.83,0,0,1,.65.28.82.82,0,0,1,.19.7l-.25,2.23c0,.05,0,.09,0,.11s.08,0,.14,0l1.83-1.32a.91.91,0,0,1,.72-.19.81.81,0,0,1,.57.44.83.83,0,0,1,.1.79,1,1,0,0,1-.52.48l-2.05.93c-.06,0-.09,0-.09.08s0,.07.09.08l2.05.93a.89.89,0,0,1,.52.54.8.8,0,0,1-.1.73.81.81,0,0,1-.57.44,1,1,0,0,1-.72-.16l-1.83-1.35c-.06,0-.1,0-.14,0s0,.06,0,.11l.25,2.23a.8.8,0,0,1-.21.7A.9.9,0,0,1,400.6,147.64Z" transform="translate(-8.55 -9.05)"/><path class="cls-7" d="M412.73,147.64a.8.8,0,0,1-.64-.28.93.93,0,0,1-.21-.7l.26-2.23c0-.05,0-.09,0-.11a.13.13,0,0,0-.14,0l-1.83,1.32a.89.89,0,0,1-.7.19.91.91,0,0,1-.6-.44.85.85,0,0,1-.09-.79.91.91,0,0,1,.52-.48l2.05-.93c.06,0,.09,0,.09-.08s0-.07-.09-.08l-2.05-.93a.83.83,0,0,1-.51-.54.94.94,0,0,1,.08-.73.91.91,0,0,1,.6-.44,1,1,0,0,1,.7.16l1.83,1.35a.13.13,0,0,0,.14,0s.05-.06,0-.11l-.26-2.23a.91.91,0,0,1,.23-.7.85.85,0,0,1,.67-.28.84.84,0,0,1,.85,1l-.25,2.23a.09.09,0,0,0,0,.11.13.13,0,0,0,.14,0l1.83-1.32a.93.93,0,0,1,.72-.19.83.83,0,0,1,.58.44.86.86,0,0,1,.1.79,1,1,0,0,1-.52.48l-2.06.93c-.05,0-.08,0-.08.08s0,.07.08.08l2.06.93a.92.92,0,0,1,.52.54,1,1,0,0,1-.68,1.17,1,1,0,0,1-.72-.16l-1.83-1.35a.13.13,0,0,0-.14,0,.09.09,0,0,0,0,.11l.25,2.23a.8.8,0,0,1-.21.7A.9.9,0,0,1,412.73,147.64Z" transform="translate(-8.55 -9.05)"/><path class="cls-25" d="M424.85,147.64a.78.78,0,0,1-.63-.28.93.93,0,0,1-.21-.7l.25-2.23c0-.05,0-.09,0-.11s-.08,0-.14,0l-1.83,1.32a.88.88,0,0,1-.7.19.91.91,0,0,1-.59-.44.86.86,0,0,1-.1-.79,1,1,0,0,1,.52-.48l2.06-.93c.05,0,.08,0,.08-.08s0-.07-.08-.08l-2.06-.93a.88.88,0,0,1-.51-.54,1,1,0,0,1,.09-.73.91.91,0,0,1,.59-.44.94.94,0,0,1,.7.16l1.83,1.35c.06,0,.11,0,.14,0s0-.06,0-.11l-.25-2.23a.9.9,0,0,1,.22-.7.87.87,0,0,1,.68-.28.83.83,0,0,1,.65.28.82.82,0,0,1,.19.7l-.25,2.23c0,.05,0,.09,0,.11s.08,0,.14,0l1.83-1.32a.91.91,0,0,1,.72-.19.81.81,0,0,1,.57.44.86.86,0,0,1,.1.79,1,1,0,0,1-.52.48l-2.05.93c-.06,0-.09,0-.09.08s0,.07.09.08l2.05.93a.89.89,0,0,1,.52.54.8.8,0,0,1-.1.73.81.81,0,0,1-.57.44,1,1,0,0,1-.72-.16l-1.83-1.35c-.06,0-.1,0-.14,0s0,.06,0,.11l.25,2.23a.8.8,0,0,1-.21.7A.9.9,0,0,1,424.85,147.64Z" transform="translate(-8.55 -9.05)"/></g></g></svg>