<?xml version="1.0" encoding="utf-8"?>
<!-- Generator: Adobe Illustrator 25.2.1, SVG Export Plug-In . SVG Version: 6.00 Build 0)  -->
<svg version="1.1" id="Layer_1" xmlns="http://www.w3.org/2000/svg" xmlns:xlink="http://www.w3.org/1999/xlink" x="0px" y="0px"
	 viewBox="0 0 150 150" style="enable-background:new 0 0 150 150;" xml:space="preserve">
<style type="text/css">
	.st0{fill:#FFFFFF;}
	.st1{fill:#543310;}
	.st2{fill:#AF8F6F;}
	.st3{fill:#CAC5BA;}
	.st4{font-family:'BerlinSansFB-Reg';}
	.st5{font-size:13.1727px;}
	.st6{fill:none;stroke:#543310;stroke-width:5;stroke-miterlimit:10;}
</style>
<rect x="-0.1" y="0.1" class="st0" width="150" height="150"/>
<g>
	<path class="st1" d="M110,88.8l0.7,1c-1.7,0.1-3.2,0.4-4.5-1.4c-1.4-2.1-3.2-3.9-4.8-5.8c-0.5-0.6-0.8-0.6-1.4,0
		c-1.5,1.8-3.1,3.4-4.6,5.1c-0.4,0.2-0.7-0.4-1.4-0.5c-0.5-0.1-0.6-0.5-0.4-1l5.7-6.5c1.5-1.4,1.5-1.4,3,0.2
		C104.7,82.7,109.9,88.8,110,88.8z"/>
	<path class="st2" d="M65.8,88.8l-5.9-6.7c-0.7-0.9-1.4-1.7-2.2-2.4c-0.8-0.7-1-1.3-0.2-2.1c0.6-0.8,1-0.6,1.5,0.1
		c3.2,3.5,6.4,7,9.7,10.5c0.2,0.2,0.4,0.4,0.6,0.6c0.1,0.2,0,0.3-0.2,0.3c-1,0.1-2,0.1-3.1-0.1L65.8,88.8z"/>
	<path class="st3" d="M93.1,78.2"/>
	<text transform="matrix(0.89 0 0 1 35.5138 102.1171)" class="st1 st4 st5">Garvo Panoptic</text>
	<g>
		<path class="st1" d="M64.2,56.6c3.5-3.9,7.1-7.4,10.7-11.1c0.5-0.6,0.7-0.3,1,0.1c3.1,3.5,6.3,6.9,9.4,10.4c2,2.2,8,7.9,7.7,9
			c-0.2,0.5-0.4,1-0.8,1.4c-4.1,4.7-8.6,9.1-12.9,13.6c-0.8,0.9-1.7,1.7-2.5,2.6c-0.4,0.4-2.7,0.3-3.2-0.1s15.9-17.7,15.6-18.3
			c-0.3-0.7-0.9-1.2-1.6-1.5c-0.4-0.2-0.6,0.4-1,0.6c-0.6,0.5-1,1.4-1.8,1.7c-0.3,0.2-0.6,0.1-0.9-0.1c-0.3-0.2-0.6-0.2-1,0.2
			c-0.6,0.5-1.1,0.5-1.5-0.2c-0.3-1.3-1.4-2-2.2-3c-1.1-1.4-2.4-2.6-3.6-3.9c-0.6-0.6-1-0.6-1.7,0.1c-1.4,1.4-3,2.9-4.6,4.2
			c-0.1,0-0.2,0.1-0.2,0.2C65.7,66,55.3,77.7,54,78.8c-0.8,0.6-0.6,1.2,0,1.8c1.9,2,3.7,4.1,5.6,6.1c0.6,0.6,1.1,1.3,1.6,1.9l0,0
			c0.3,0.3,0.2,0.9-0.1,1.1C61,90,60.7,90,60.5,90c-1.8-0.1-3.1-1.2-4.3-2.7c-1.4-1.8-3.2-3.5-4.7-5.3c-0.6-0.6-0.9-0.6-1.4,0
			c-2,2.2-4.2,4.2-6.1,6.5c-0.6,0.8-1.5,1.3-2.5,1.4c-0.4,0.1-0.9-0.2-1-0.6c-0.1-0.2,0-0.6,0.2-0.8c3.1-3.3,10.6-11.5,13.7-14.6
			c6.2-6.4,12.4-12.9,18.6-19.3c0.3-0.3,0.6-0.7,1-1c0.9-0.8,1.3-0.8,2.1,0.1c2.4,2.4,4.5,5,6.8,7.5c0.5,0.6,0.9,1,1.5,0.2
			c0.6-0.6,1-1,0.2-1.8c-2.7-3-5.4-5.9-8-8.8c-1.6-1.8-1.3-1.5-2.9,0c-0.5,0.4-5.1,5.5-7.4,7.1c-0.2,0.2-0.6,0.2-1,0
			C65,57.5,64.1,56.7,64.2,56.6z"/>
		<polyline class="st1" points="66.2,57.7 33.4,89.2 30.4,89.2 64,56.6 		"/>
		<path class="st1" d="M96.8,70C93,74.1,89,78.1,85.2,82.2c-1.4,1.4-2.7,2.9-4,4.3l-3.7,3.9c-0.7,0.2-1.5,0.2-2.3,0.1
			c-0.2,0-0.3-0.2-0.3-0.4l3.1-3.5c0.2-0.6,9.9-11.1,14.4-15.9c0.7-0.6,9.3-9.1,11.8-11.8c0.6-0.6,1-0.7,1.6,0
			c9.1,10.3,18.2,20.5,27.2,30.8c0.2,0.2,0.4,0.5,0.6,0.7c-2.2,0.8-3.9-0.2-5.1-2l0,0c-0.6-0.6-1.1-1.1-1.5-1.8
			c-2.8-3.1-5.5-6.3-8.4-9.4c-4.3-4.9-8.7-9.9-13-14.8c-0.6-0.7-1-0.8-1.6,0C102.6,63.9,97,69.4,96.8,70z"/>
		<path class="st2" d="M47.3,68.6L33.3,83c-0.5,0.5-0.9,1-1.4,1.5c-1.2,1-2.2,2.2-3.3,3.4c-1.2,1.6-2.7,1.4-4.4,1.4l1.2-1.4
			l14.9-15.3c1.8-1.8,3.6-3.8,5.4-5.6c0.2-0.3,0.5-0.8,1-0.5C46.9,66.5,48.1,68,47.3,68.6z"/>
		<path class="st2" d="M100.7,73.9c-1,1.3-11.9,12.8-13.4,14.7c-1.3,1.6-2.7,1.3-4.4,1.4c0.6-0.7,3.9-4.4,5.1-5.7
			c1.8-1.8,10.4-11.7,10.9-11.9l1.6-1.5c0.2,0.1,0.3,0.5,0.5,0.5c1.1,0,0.7,0.7,0.5,1.3S100.8,73.5,100.7,73.9z"/>
		<path class="st2" d="M100.7,73.9c-0.5-1,0.9-1.3,0.6-2.2c-0.3,0.2-0.3,0.7-0.9,0.8c0.2-0.5,0.2-1.1,0-1.6c0.4-0.8,0.7-0.4,1.1,0
			c2.2,2.5,4.4,4.9,6.6,7.4c0.2,0.2,7.6,8.4,10.2,11.5c-1.8,0.3-3.4,0.3-4.5-1.4c-0.7-1-1.5-1.8-2.4-2.7L102,75.1
			c-0.3-0.3-0.6-0.7-0.9-1.1c-0.2-0.2-0.2-0.5,0-0.6l0,0C100.9,73.5,100.8,73.8,100.7,73.9L100.7,73.9z"/>
		<path class="st2" d="M125.5,89.1l0.4,0.7c-2,0.6-3.5-0.2-4.8-1.8c-3.1-3.7-11.9-13.5-12.4-14.2c0.6-0.6,0.4-1-0.2-1.7
			c-0.7-0.8-0.6-1.4,0.2-1.7c2.2,2.4,8.1,9,9,9.7C118,80.5,123.2,86.5,125.5,89.1z"/>
		<path class="st1" d="M74.7,72.1c2.2-2.2,4.5-4.5,6.7-6.8c0.3-0.3,0.7-0.6,1-1c0.9,1,1.2-0.5,1.8-0.5c0.2,0-0.1-0.8,0.5-0.6
			c0.6,0.2,0.2,0.6,0.2,1c0.1,0.2,0.1,0.3,0.2,0.4c-3.7,3.9-7.4,7.7-11.1,11.6c-0.6,0.6-2.6,3.1-3.1,2.8c-0.6-0.3-1-0.8-1.4-1.4
			c-0.2-0.3,0.2-0.5,0.3-0.6C71.6,75.4,73.1,73.8,74.7,72.1z"/>
		<path class="st2" d="M76.2,61.9c0.3-0.6,0.6-0.4,1,0c0.2,0.2,0.3,0.4,0.6,0.6c0.6,0.5,0.5,0.8,0,1.3c-3.1,3.1-9.9,10.5-10.3,10.6
			c-0.9-0.1-1.2-0.8-1.7-1.4C65.4,72.7,76,62.2,76.2,61.9z"/>
		<path class="st2" d="M108.8,70.4c-0.8,0.9,0,1.4,0.6,1.8s0.5,0.6,0.3,1.2c-0.2,1.1-0.8-0.5-1,0.2c-1.8-1.7-3.3-3.5-5-5.3
			c-0.3-0.4-0.2-0.6,0-0.9c1.1-1.3,1.1-1.3,2.3,0C107,68.3,107.9,69.3,108.8,70.4z"/>
		<path class="st2" d="M100.7,73.7c0.3-0.8,0.7-1.4,1.6-0.8c-0.1,0.7-1,0.2-1.2,0.8H100.7z"/>
		<path class="st1" d="M48.5,62.5c-0.7,1-1.4,1.1-2.1,0c-0.4-0.6-0.7-0.3-1.1,0.1c-4.7,4.9-9.3,9.7-14.1,14.5
			c-2.7,3-9.6,10-10.1,10.7c-1.1,1.7-2.7,1.4-4.6,1.4c3.5-3.7,18.2-19,21.8-22.7c2.3-2.4,4.7-4.7,7-7.1c0.5-0.6,0.8-0.6,1.3,0
			c0.6,0.7,1.2,1.4,1.8,2c0.3,0.2,0.4,0.6,0.2,1C48.6,62.4,48.6,62.5,48.5,62.5z"/>
	</g>
	<line class="st6" x1="16.5" y1="90" x2="133.5" y2="90.6"/>
</g>
</svg>
