<svg xmlns="http://www.w3.org/2000/svg" xmlns:xlink="http://www.w3.org/1999/xlink" viewBox="0 0 216.36 219"><defs><style>.cls-1,.cls-11,.cls-14,.cls-16,.cls-19,.cls-20,.cls-28,.cls-31,.cls-32,.cls-35,.cls-37,.cls-38,.cls-5,.cls-8{fill:none;}.cls-2{isolation:isolate;}.cls-3{clip-path:url(#clip-path);}.cls-4{fill:#d4f7e3;}.cls-5{stroke:#dec5ab;}.cls-11,.cls-14,.cls-16,.cls-28,.cls-31,.cls-32,.cls-35,.cls-37,.cls-38,.cls-5,.cls-8{stroke-miterlimit:10;}.cls-31,.cls-32,.cls-35,.cls-37,.cls-38,.cls-5{stroke-width:0.5px;}.cls-6{fill:#dec5ab;}.cls-22,.cls-40,.cls-7{fill:#f8e4cf;}.cls-8{stroke:#1a5319;}.cls-11,.cls-14,.cls-16,.cls-20,.cls-8{stroke-width:2px;}.cls-9{fill:#3b7977;}.cls-10{fill:#184347;}.cls-11,.cls-31{stroke:#3b7977;}.cls-12{fill:#ffac48;}.cls-13{fill:#ea9633;}.cls-14{stroke:#ffac48;}.cls-15{fill:#1a5319;}.cls-16{stroke:#d35422;}.cls-17{fill:#d35422;}.cls-18{fill:#bd3e00;}.cls-19,.cls-20,.cls-28{stroke:#374a3a;}.cls-19,.cls-20{stroke-linejoin:round;}.cls-19{stroke-width:3px;}.cls-21{fill:#374a3a;}.cls-22{font-size:8.02px;}.cls-22,.cls-40{font-family:Poppins-Black, Poppins Black;font-weight:800;}.cls-23{letter-spacing:-0.01em;}.cls-24{letter-spacing:-0.01em;}.cls-25{letter-spacing:0em;}.cls-26{letter-spacing:0.01em;}.cls-27{fill:#ca791e;}.cls-29{fill:#0c2109;}.cls-30{fill:#1b2e35;}.cls-32{stroke:#bd3e00;}.cls-33{fill:#602116;}.cls-34{fill:#d06f32;}.cls-35,.cls-37{stroke:#0c2109;}.cls-36{fill:#5ae3a7;}.cls-37{mix-blend-mode:multiply;}.cls-38{stroke:#ea9633;}.cls-39{fill:#80af81;}.cls-40{font-size:14.32px;}.cls-41{letter-spacing:-0.02em;}.cls-42{letter-spacing:0.03em;}.cls-43{letter-spacing:-0.01em;}</style><clipPath id="clip-path" transform="translate(-23.12 -12.21)"><rect class="cls-1" x="25.07" y="31.2" width="208.68" height="156.06"/></clipPath></defs><g class="cls-2"><g id="OBJECTS"><g class="cls-3"><ellipse class="cls-4" cx="108.18" cy="112.64" rx="92.33" ry="91.42"/><ellipse class="cls-5" cx="108.18" cy="112.64" rx="70.56" ry="91.42"/><ellipse class="cls-5" cx="108.18" cy="112.64" rx="22.28" ry="91.42"/><ellipse class="cls-5" cx="108.18" cy="112.64" rx="92.33" ry="69.86"/><ellipse class="cls-5" cx="108.18" cy="112.64" rx="92.33" ry="22.06"/><path class="cls-6" d="M114.32,68.08c0,2.6-4.77,8.25-4.77,8.25s-4.76-5.65-4.76-8.25a4.77,4.77,0,0,1,9.53,0Z" transform="translate(-23.12 -12.21)"/><path class="cls-7" d="M111.67,68.08a2.12,2.12,0,1,1-2.12-2.1A2.11,2.11,0,0,1,111.67,68.08Z" transform="translate(-23.12 -12.21)"/><path class="cls-6" d="M132.5,120.87c0,2.61-4.76,8.26-4.76,8.26s-4.77-5.65-4.77-8.26a4.77,4.77,0,0,1,9.53,0Z" transform="translate(-23.12 -12.21)"/><path class="cls-7" d="M129.86,120.87a2.12,2.12,0,1,1-2.12-2.09A2.11,2.11,0,0,1,129.86,120.87Z" transform="translate(-23.12 -12.21)"/><line class="cls-8" x1="86.43" y1="64.12" x2="80.43" y2="64.12"/><polyline class="cls-8" points="77.5 64.12 71.5 64.12 71.5 70.12"/><polyline class="cls-8" points="71.5 85.31 71.5 91.31 77.5 91.31"/><polyline class="cls-8" points="84.49 91.31 90.49 91.31 90.49 97.31"/><polyline class="cls-8" points="90.49 111.65 90.49 117.65 96.49 117.65"/><line class="cls-8" x1="98.61" y1="117.65" x2="104.61" y2="117.65"/></g><rect class="cls-9" x="160.82" y="151.07" width="39.18" height="23.99"/><rect class="cls-10" x="160.82" y="153.77" width="39.18" height="18.59"/><line class="cls-11" x1="162.53" y1="153.77" x2="162.53" y2="172.36"/><line class="cls-11" x1="164.91" y1="153.77" x2="164.91" y2="172.36"/><line class="cls-11" x1="167.3" y1="153.77" x2="167.3" y2="172.36"/><line class="cls-11" x1="169.68" y1="153.77" x2="169.68" y2="172.36"/><line class="cls-11" x1="172.07" y1="153.77" x2="172.07" y2="172.36"/><line class="cls-11" x1="174.45" y1="153.77" x2="174.45" y2="172.36"/><line class="cls-11" x1="176.84" y1="153.77" x2="176.84" y2="172.36"/><line class="cls-11" x1="179.22" y1="153.77" x2="179.22" y2="172.36"/><line class="cls-11" x1="181.61" y1="153.77" x2="181.61" y2="172.36"/><line class="cls-11" x1="183.99" y1="153.77" x2="183.99" y2="172.36"/><line class="cls-11" x1="186.37" y1="153.77" x2="186.37" y2="172.36"/><line class="cls-11" x1="188.76" y1="153.77" x2="188.76" y2="172.36"/><line class="cls-11" x1="191.14" y1="153.77" x2="191.14" y2="172.36"/><line class="cls-11" x1="193.53" y1="153.77" x2="193.53" y2="172.36"/><line class="cls-11" x1="195.91" y1="153.77" x2="195.91" y2="172.36"/><line class="cls-11" x1="198.3" y1="153.77" x2="198.3" y2="172.36"/><rect class="cls-9" x="129.22" y="127.09" width="39.18" height="23.99"/><rect class="cls-10" x="129.22" y="129.79" width="39.18" height="18.59"/><line class="cls-11" x1="130.92" y1="129.79" x2="130.92" y2="148.38"/><line class="cls-11" x1="133.3" y1="129.79" x2="133.3" y2="148.38"/><line class="cls-11" x1="135.69" y1="129.79" x2="135.69" y2="148.38"/><line class="cls-11" x1="138.07" y1="129.79" x2="138.07" y2="148.38"/><line class="cls-11" x1="140.46" y1="129.79" x2="140.46" y2="148.38"/><line class="cls-11" x1="142.84" y1="129.79" x2="142.84" y2="148.38"/><line class="cls-11" x1="145.23" y1="129.79" x2="145.23" y2="148.38"/><line class="cls-11" x1="147.61" y1="129.79" x2="147.61" y2="148.38"/><line class="cls-11" x1="150" y1="129.79" x2="150" y2="148.38"/><line class="cls-11" x1="152.38" y1="129.79" x2="152.38" y2="148.38"/><line class="cls-11" x1="154.77" y1="129.79" x2="154.77" y2="148.38"/><line class="cls-11" x1="157.15" y1="129.79" x2="157.15" y2="148.38"/><line class="cls-11" x1="159.54" y1="129.79" x2="159.54" y2="148.38"/><line class="cls-11" x1="161.92" y1="129.79" x2="161.92" y2="148.38"/><line class="cls-11" x1="164.31" y1="129.79" x2="164.31" y2="148.38"/><line class="cls-11" x1="166.69" y1="129.79" x2="166.69" y2="148.38"/><rect class="cls-12" x="168.48" y="127.09" width="39.18" height="23.99"/><rect class="cls-13" x="168.48" y="129.79" width="39.18" height="18.59"/><line class="cls-14" x1="170.18" y1="129.79" x2="170.18" y2="148.38"/><line class="cls-14" x1="172.56" y1="129.79" x2="172.56" y2="148.38"/><line class="cls-14" x1="174.95" y1="129.79" x2="174.95" y2="148.38"/><line class="cls-14" x1="177.33" y1="129.79" x2="177.33" y2="148.38"/><line class="cls-14" x1="179.72" y1="129.79" x2="179.72" y2="148.38"/><line class="cls-14" x1="182.1" y1="129.79" x2="182.1" y2="148.38"/><line class="cls-14" x1="184.49" y1="129.79" x2="184.49" y2="148.38"/><line class="cls-14" x1="186.87" y1="129.79" x2="186.87" y2="148.38"/><line class="cls-14" x1="189.26" y1="129.79" x2="189.26" y2="148.38"/><line class="cls-14" x1="191.64" y1="129.79" x2="191.64" y2="148.38"/><line class="cls-14" x1="194.03" y1="129.79" x2="194.03" y2="148.38"/><line class="cls-14" x1="196.41" y1="129.79" x2="196.41" y2="148.38"/><line class="cls-14" x1="198.79" y1="129.79" x2="198.79" y2="148.38"/><line class="cls-14" x1="201.18" y1="129.79" x2="201.18" y2="148.38"/><line class="cls-14" x1="203.56" y1="129.79" x2="203.56" y2="148.38"/><line class="cls-14" x1="205.95" y1="129.79" x2="205.95" y2="148.38"/><rect class="cls-15" x="164.19" y="103.1" width="39.18" height="23.99"/><rect class="cls-15" x="164.19" y="105.8" width="39.18" height="18.59"/><line class="cls-16" x1="165.89" y1="105.8" x2="165.89" y2="124.39"/><line class="cls-16" x1="168.27" y1="105.8" x2="168.27" y2="124.39"/><line class="cls-16" x1="170.66" y1="105.8" x2="170.66" y2="124.39"/><line class="cls-16" x1="173.04" y1="105.8" x2="173.04" y2="124.39"/><line class="cls-16" x1="175.43" y1="105.8" x2="175.43" y2="124.39"/><line class="cls-16" x1="177.81" y1="105.8" x2="177.81" y2="124.39"/><line class="cls-16" x1="180.2" y1="105.8" x2="180.2" y2="124.39"/><line class="cls-16" x1="182.58" y1="105.8" x2="182.58" y2="124.39"/><line class="cls-16" x1="184.97" y1="105.8" x2="184.97" y2="124.39"/><line class="cls-16" x1="187.35" y1="105.8" x2="187.35" y2="124.39"/><line class="cls-16" x1="189.74" y1="105.8" x2="189.74" y2="124.39"/><line class="cls-16" x1="192.12" y1="105.8" x2="192.12" y2="124.39"/><line class="cls-16" x1="194.51" y1="105.8" x2="194.51" y2="124.39"/><line class="cls-16" x1="196.89" y1="105.8" x2="196.89" y2="124.39"/><line class="cls-16" x1="199.27" y1="105.8" x2="199.27" y2="124.39"/><line class="cls-16" x1="201.66" y1="105.8" x2="201.66" y2="124.39"/><rect class="cls-17" x="121.66" y="151.07" width="39.18" height="23.99"/><rect class="cls-18" x="121.66" y="153.77" width="39.18" height="18.59"/><line class="cls-16" x1="123.36" y1="153.77" x2="123.36" y2="172.36"/><line class="cls-16" x1="125.75" y1="153.77" x2="125.75" y2="172.36"/><line class="cls-16" x1="128.13" y1="153.77" x2="128.13" y2="172.36"/><line class="cls-16" x1="130.52" y1="153.77" x2="130.52" y2="172.36"/><line class="cls-16" x1="132.9" y1="153.77" x2="132.9" y2="172.36"/><line class="cls-16" x1="135.29" y1="153.77" x2="135.29" y2="172.36"/><line class="cls-16" x1="137.67" y1="153.77" x2="137.67" y2="172.36"/><line class="cls-16" x1="140.06" y1="153.77" x2="140.06" y2="172.36"/><line class="cls-16" x1="142.44" y1="153.77" x2="142.44" y2="172.36"/><line class="cls-16" x1="144.83" y1="153.77" x2="144.83" y2="172.36"/><line class="cls-16" x1="147.21" y1="153.77" x2="147.21" y2="172.36"/><line class="cls-16" x1="149.59" y1="153.77" x2="149.59" y2="172.36"/><line class="cls-16" x1="151.98" y1="153.77" x2="151.98" y2="172.36"/><line class="cls-16" x1="154.36" y1="153.77" x2="154.36" y2="172.36"/><line class="cls-16" x1="156.75" y1="153.77" x2="156.75" y2="172.36"/><line class="cls-16" x1="159.13" y1="153.77" x2="159.13" y2="172.36"/><line class="cls-19" y1="175.06" x2="216.36" y2="175.06"/><rect class="cls-19" x="33.95" y="16.63" width="26.67" height="26.41"/><line class="cls-19" x1="33.95" y1="43.03" x2="60.62" y2="16.63"/><line class="cls-19" x1="33.95" y1="16.63" x2="60.62" y2="43.03"/><rect class="cls-19" x="7.28" y="16.63" width="26.67" height="26.41"/><line class="cls-19" x1="7.28" y1="43.03" x2="33.95" y2="16.63"/><line class="cls-19" x1="7.28" y1="16.63" x2="33.95" y2="43.03"/><rect class="cls-19" x="33.95" y="43.03" width="26.67" height="26.41"/><line class="cls-19" x1="33.95" y1="69.44" x2="60.62" y2="43.03"/><line class="cls-19" x1="33.95" y1="43.03" x2="60.62" y2="69.44"/><rect class="cls-19" x="33.95" y="69.44" width="26.67" height="26.41"/><line class="cls-19" x1="33.95" y1="95.84" x2="60.62" y2="69.44"/><line class="cls-19" x1="33.95" y1="69.44" x2="60.62" y2="95.84"/><rect class="cls-19" x="33.95" y="95.84" width="26.67" height="26.41"/><line class="cls-19" x1="33.95" y1="122.25" x2="60.62" y2="95.84"/><line class="cls-19" x1="33.95" y1="95.84" x2="60.62" y2="122.25"/><rect class="cls-19" x="33.95" y="122.25" width="26.67" height="26.41"/><line class="cls-19" x1="33.95" y1="148.66" x2="60.62" y2="122.25"/><line class="cls-19" x1="33.95" y1="122.25" x2="60.62" y2="148.66"/><rect class="cls-19" x="33.95" y="148.66" width="26.67" height="26.41"/><line class="cls-19" x1="33.95" y1="175.06" x2="60.62" y2="148.66"/><line class="cls-19" x1="33.95" y1="148.66" x2="60.62" y2="175.06"/><polyline class="cls-19" points="60.62 16.63 154.52 16.63 60.62 43.03"/><polyline class="cls-19" points="144.8 16.63 132.21 22.9 117.58 16.63 103.1 31.09 83.13 16.63 60.62 43.03"/><polygon class="cls-19" points="33.95 16.63 47.29 1.5 60.62 16.63 33.95 16.63"/><path class="cls-20" d="M174.53,51a3.12,3.12,0,1,0,3.12-3.08V28.83" transform="translate(-23.12 -12.21)"/><path class="cls-21" d="M179.49,46.66a1.85,1.85,0,1,1-1.84-1.82A1.83,1.83,0,0,1,179.49,46.66Z" transform="translate(-23.12 -12.21)"/><rect class="cls-12" x="147.32" y="76.84" width="23.03" height="37.61" transform="translate(39.8 242.12) rotate(-89.91)"/><rect class="cls-13" x="149.91" y="76.84" width="17.85" height="37.61" transform="translate(39.8 242.12) rotate(-89.91)"/><line class="cls-14" x1="118.55" y1="74.49" x2="118.52" y2="92.34"/><line class="cls-14" x1="120.84" y1="74.5" x2="120.81" y2="92.34"/><line class="cls-14" x1="123.13" y1="74.5" x2="123.1" y2="92.35"/><line class="cls-14" x1="125.42" y1="74.5" x2="125.39" y2="92.35"/><line class="cls-14" x1="127.71" y1="74.51" x2="127.68" y2="92.35"/><line class="cls-14" x1="130" y1="74.51" x2="129.97" y2="92.36"/><line class="cls-14" x1="132.29" y1="74.51" x2="132.26" y2="92.36"/><line class="cls-14" x1="134.58" y1="74.52" x2="134.55" y2="92.36"/><line class="cls-14" x1="136.87" y1="74.52" x2="136.84" y2="92.37"/><line class="cls-14" x1="139.16" y1="74.53" x2="139.13" y2="92.37"/><line class="cls-14" x1="141.45" y1="74.53" x2="141.42" y2="92.38"/><line class="cls-14" x1="143.73" y1="74.53" x2="143.7" y2="92.38"/><line class="cls-14" x1="146.02" y1="74.54" x2="145.99" y2="92.38"/><line class="cls-14" x1="148.31" y1="74.54" x2="148.28" y2="92.39"/><line class="cls-14" x1="150.6" y1="74.54" x2="150.57" y2="92.39"/><line class="cls-14" x1="152.89" y1="74.55" x2="152.86" y2="92.39"/><text class="cls-22" transform="matrix(1.01, 0, 0, 1, 119.55, 85.94)">Su<tspan class="cls-23" x="8.38" y="0">r</tspan><tspan class="cls-24" x="10.94" y="0">g</tspan><tspan class="cls-25" x="15.37" y="0">icals</tspan></text><rect class="cls-15" x="184.93" y="76.9" width="23.03" height="37.61" transform="translate(77.29 279.79) rotate(-89.91)"/><rect class="cls-15" x="187.52" y="76.9" width="17.85" height="37.61" transform="translate(77.29 279.79) rotate(-89.91)"/><line class="cls-16" x1="156.16" y1="74.55" x2="156.13" y2="92.4"/><line class="cls-16" x1="158.45" y1="74.56" x2="158.42" y2="92.4"/><line class="cls-16" x1="160.74" y1="74.56" x2="160.71" y2="92.41"/><line class="cls-16" x1="163.03" y1="74.56" x2="163" y2="92.41"/><line class="cls-16" x1="165.32" y1="74.57" x2="165.29" y2="92.41"/><line class="cls-16" x1="167.61" y1="74.57" x2="167.58" y2="92.42"/><line class="cls-16" x1="169.9" y1="74.58" x2="169.87" y2="92.42"/><line class="cls-16" x1="172.19" y1="74.58" x2="172.16" y2="92.43"/><line class="cls-16" x1="174.48" y1="74.58" x2="174.45" y2="92.43"/><line class="cls-16" x1="176.77" y1="74.59" x2="176.74" y2="92.43"/><line class="cls-16" x1="179.06" y1="74.59" x2="179.03" y2="92.44"/><line class="cls-16" x1="181.35" y1="74.59" x2="181.32" y2="92.44"/><line class="cls-16" x1="183.63" y1="74.6" x2="183.6" y2="92.44"/><line class="cls-16" x1="185.92" y1="74.6" x2="185.89" y2="92.45"/><line class="cls-16" x1="188.21" y1="74.61" x2="188.18" y2="92.45"/><line class="cls-16" x1="190.5" y1="74.61" x2="190.47" y2="92.46"/><text class="cls-22" transform="matrix(1.01, 0, 0, 1, 155.78, 85.94)"><tspan class="cls-26">M</tspan><tspan x="6.5" y="0">edicines</tspan></text><rect class="cls-13" x="158.39" y="61.82" width="19.09" height="25.56" transform="translate(69.94 230.22) rotate(-89.91)"/><rect class="cls-27" x="167.34" y="70.78" width="19.09" height="7.67" transform="translate(78.85 239.17) rotate(-89.91)"/><rect class="cls-21" x="161.81" y="65.26" width="4.37" height="3.95" transform="translate(73.37 218.92) rotate(-89.91)"/><rect class="cls-21" x="174.71" y="66.1" width="4.37" height="2.31" transform="translate(86.22 231.84) rotate(-89.91)"/><polygon class="cls-21" points="143.47 68.73 142.21 67.29 140.94 68.72 141.59 68.72 141.59 70.1 142.82 70.1 142.82 68.73 143.47 68.73"/><polygon class="cls-21" points="140.77 68.72 139.51 67.29 138.24 68.72 138.89 68.72 138.88 70.1 140.12 70.1 140.12 68.72 140.77 68.72"/><rect class="cls-13" x="183.91" y="61.87" width="19.09" height="25.56" transform="translate(95.37 255.77) rotate(-89.91)"/><rect class="cls-27" x="192.85" y="70.82" width="19.09" height="7.67" transform="translate(104.29 264.73) rotate(-89.91)"/><rect class="cls-21" x="187.33" y="65.3" width="4.37" height="3.95" transform="translate(98.8 244.48) rotate(-89.91)"/><rect class="cls-21" x="200.23" y="66.14" width="4.37" height="2.31" transform="translate(111.66 257.4) rotate(-89.91)"/><polygon class="cls-21" points="168.99 68.77 167.73 67.33 166.46 68.77 167.11 68.77 167.1 70.14 168.34 70.14 168.34 68.77 168.99 68.77"/><polygon class="cls-21" points="166.29 68.77 165.02 67.33 163.75 68.76 164.4 68.76 164.4 70.14 165.64 70.14 165.64 68.76 166.29 68.77"/><rect class="cls-21" x="176.39" y="68.38" width="2.43" height="79.33" transform="translate(46.15 273.28) rotate(-89.91)"/><polygon class="cls-28" points="118.18 95.11 154.52 41.8 190.87 95.11 118.18 95.11"/><path class="cls-29" d="M175.12,222.21l-.93,3.6-7.91,3.69v1.38h14a14.3,14.3,0,0,0-.46-4,30.46,30.46,0,0,1-.75-4.7Z" transform="translate(-23.12 -12.21)"/><path class="cls-10" d="M180.22,229.68a10.06,10.06,0,0,1,0,1.2h-14v-1.2Z" transform="translate(-23.12 -12.21)"/><path class="cls-29" d="M203.61,219.12l1.28,3.49-4.45,7.46.79,1.14,11.54-7.79a14.62,14.62,0,0,0-2.64-3,30.44,30.44,0,0,1-3.29-3.47Z" transform="translate(-23.12 -12.21)"/><path class="cls-10" d="M212.07,222.45c.45.58.7,1,.7,1l-11.54,7.79-.68-1Z" transform="translate(-23.12 -12.21)"/><path class="cls-30" d="M165.41,156.64s1,16.28,2.42,30.57c1,9.89,5.1,34.35,5.92,35.57s7,2.16,7.4.58-.72-28.94-.78-31.13-.15-8.31-.15-8.31,2.28,7.67,3.28,9.36,18.33,26,19.46,26.16,6.36-.87,6.92-3.59S195.15,189,194.51,187s-8.29-28.74-8.29-28.74Z" transform="translate(-23.12 -12.21)"/><path class="cls-31" d="M169.09,168.67l7.22,4.25s2.88,7.7,3.91,11" transform="translate(-23.12 -12.21)"/><path class="cls-31" d="M177.56,176.3s.58,12.91.69,14.12,1.87,33.65,1.87,33.65" transform="translate(-23.12 -12.21)"/><path class="cls-31" d="M184.42,158.14s6.72,27.28,7.63,29.23,17.36,29.5,17.36,29.5" transform="translate(-23.12 -12.21)"/><path class="cls-13" d="M185.43,179.33a.61.61,0,0,1-.28.82l-12.29,6.06a.61.61,0,0,1-.82-.27l-8.71-17.29a.61.61,0,0,1,.28-.82l12.29-6.06a.6.6,0,0,1,.82.27Z" transform="translate(-23.12 -12.21)"/><polygon class="cls-7" points="159.5 165.02 148.9 170.25 141.68 155.9 152.28 150.67 159.5 165.02"/><polygon class="cls-6" points="152.43 153.99 151.47 154.47 150.99 153.51 151.95 153.03 152.43 153.99"/><polygon class="cls-6" points="150.02 154.92 143.83 157.98 143.59 157.5 149.78 154.44 150.02 154.92"/><path class="cls-32" d="M174.63,166.06l.31.1a3,3,0,0,1,.69-1.54" transform="translate(-23.12 -12.21)"/><polygon class="cls-6" points="153.51 156.13 152.54 156.6 152.06 155.65 153.03 155.17 153.51 156.13"/><polygon class="cls-6" points="151.1 157.06 144.91 160.12 144.67 159.64 150.86 156.58 151.1 157.06"/><path class="cls-32" d="M175.7,168.19l.31.11a3.09,3.09,0,0,1,.7-1.54" transform="translate(-23.12 -12.21)"/><polygon class="cls-6" points="154.59 158.27 153.62 158.74 153.14 157.79 154.1 157.31 154.59 158.27"/><polygon class="cls-6" points="152.18 159.2 145.99 162.25 145.75 161.78 151.94 158.72 152.18 159.2"/><path class="cls-32" d="M176.78,170.33l.31.11a3,3,0,0,1,.69-1.54" transform="translate(-23.12 -12.21)"/><polygon class="cls-6" points="155.66 160.41 154.7 160.88 154.22 159.93 155.18 159.45 155.66 160.41"/><polygon class="cls-6" points="153.25 161.34 147.06 164.39 146.82 163.91 153.01 160.86 153.25 161.34"/><path class="cls-32" d="M177.86,172.47l.31.11a3,3,0,0,1,.69-1.54" transform="translate(-23.12 -12.21)"/><polygon class="cls-6" points="156.74 162.54 155.77 163.02 155.29 162.06 156.26 161.59 156.74 162.54"/><polygon class="cls-6" points="154.33 163.48 148.14 166.53 147.9 166.05 154.09 163 154.33 163.48"/><path class="cls-32" d="M178.93,174.61l.31.1a3,3,0,0,1,.7-1.53" transform="translate(-23.12 -12.21)"/><path class="cls-27" d="M173.28,162.24l-2.93,1.45a1,1,0,0,0-1.39-.46,1,1,0,0,0-.46,1.37l-2.94,1.45a.6.6,0,0,0-.27.82l.33.65a.61.61,0,0,0,.82.27l7.72-3.81a.6.6,0,0,0,.28-.81l-.33-.66A.62.62,0,0,0,173.28,162.24Z" transform="translate(-23.12 -12.21)"/><path class="cls-33" d="M169.7,164a.31.31,0,0,1-.14.41.31.31,0,0,1-.41-.14.3.3,0,0,1,.14-.41A.31.31,0,0,1,169.7,164Z" transform="translate(-23.12 -12.21)"/><path class="cls-34" d="M187.82,170a8,8,0,0,1-2,1.55c-.48.28-6.84,3.81-7.21,3.4s2.52-1.94,2.48-2.21-4.94,2.46-5.06,1.86,3.72-2.89,3.42-3.18-5.29,1.77-5,1,4.38-2.47,4.08-2.76-4.58.81-4.2.31a23.87,23.87,0,0,1,4.06-2.18c.59-.27,4.88.27,5.74-.19l3.65-4.94,3.6,2.1Z" transform="translate(-23.12 -12.21)"/><path class="cls-34" d="M149.71,122.29s-1.3-1.5-1.46-1.71-.16-2.46-.65-3.37a13.68,13.68,0,0,1-1.62-3.64c-.27-1.39-.43-2.83-1-2.72s-.76,1.59-.49,3.17-4.7-3.23-5.19-2.85,3.14,3.69,3.14,4.06-4.76-3.85-5.3-3.58S141,116,140.8,116.3s-4.16-2.63-4.49-2.28,4,3.51,3.89,3.83-2.4-.43-2.77,0,5.78,3.28,7,3.42,2.59,2.63,2.59,2.63Z" transform="translate(-23.12 -12.21)"/><path class="cls-30" d="M176.74,127.77a56.54,56.54,0,0,0-7.37,0,21.68,21.68,0,0,1-10.69-1.63c-3.68-1.71-9.08-6.85-9.83-6.74s-3.68,2.46-3.68,2.46,1.19,9.84,8,13.8,12.31,3.85,12.31,3.85-.64,17.1-.21,17.75,10.81,6.75,21.5.65l2.48-11.66s2.16,7.05.65,11-5.4,8.78-5.72,9.42,4.42,3.85,6.26,2.79c0,0,9.29-5.57,9.83-14.55s-4.32-21.29-7.67-24-10.65-2.2-10.65-2.2Z" transform="translate(-23.12 -12.21)"/><path class="cls-35" d="M198,153.85s-3.48-1.53-7.68,1.69" transform="translate(-23.12 -12.21)"/><path class="cls-35" d="M159.12,126.33a9.22,9.22,0,0,1-1.42,7.73" transform="translate(-23.12 -12.21)"/><path class="cls-36" d="M182,136.41c-.75.43-7.56-.64-8.1-1.82-.39-.85.75-4.78,1.41-6.89-1.28,0-3.19-.1-4.74,0-3.1,3.89-5.1,11.84-5.1,11.84s-.64,17.1-.21,17.75,10.81,6.75,21.5.65l2.48-11.66c.78-7.49.87-14.16.87-16.58a19.77,19.77,0,0,0-4.84-.87C184.54,130.86,182.62,136.07,182,136.41Z" transform="translate(-23.12 -12.21)"/><path class="cls-30" d="M165.42,141.33c-.08,2.26-.21,6.23-.27,9.64l22.74,1.69,1.36-6.41c.08-.71.14-1.42.21-2.12A240.09,240.09,0,0,0,165.42,141.33Z" transform="translate(-23.12 -12.21)"/><path class="cls-37" d="M173.83,134.06a156.25,156.25,0,0,0-4,25.45" transform="translate(-23.12 -12.21)"/><path class="cls-37" d="M182,136.41s-1.09,12-1.68,23.86" transform="translate(-23.12 -12.21)"/><path class="cls-34" d="M175.6,109.3a30.27,30.27,0,0,0-3.07,6.23c-.87,2.84-.87,6.15,0,6.75a26.35,26.35,0,0,0,4.54,1.52l-.33,4s0,4,5.21,1a18,18,0,0,1,1.27-6.48c1.41-3.78,3.68-7.42,3.55-8.41S180.08,107.38,175.6,109.3Z" transform="translate(-23.12 -12.21)"/><path class="cls-30" d="M182.48,124.69s-.79-.63-.73-1,.73-2.45,0-3.38A2.49,2.49,0,0,0,184,119c.8-1.46.6-3.78-2-3,0,0-1.74-.86-.94-3.77a12.58,12.58,0,0,0-5-1.79c-3.54-.66-3.88-3.24-3.61-3.91s1.4.53,2.54.47c0,0-1.27-2.12.07-3.38s1.87.93,3.67,2.39a40.28,40.28,0,0,0,7.42,4.3c2.14.93,2.41,2.1,1.88,3.66s-4.15,9.31-4.42,10S182.8,125,182.48,124.69Z" transform="translate(-23.12 -12.21)"/><rect class="cls-30" x="8.1" y="116.96" width="66.29" height="88.13"/><line class="cls-38" x1="41.25" y1="116.96" x2="41.25" y2="205.09"/><line class="cls-38" x1="74.39" y1="145.87" x2="8.1" y2="145.87"/><line class="cls-38" x1="74.39" y1="176.18" x2="8.1" y2="176.18"/><rect class="cls-21" x="53.59" y="138.27" width="3.28" height="3.94"/><rect class="cls-7" x="58.97" y="138.27" width="3.28" height="3.94"/><rect class="cls-21" x="21.11" y="138.27" width="3.28" height="3.94"/><rect class="cls-7" x="26.49" y="138.27" width="3.28" height="3.94"/><rect class="cls-21" x="53.59" y="169.02" width="3.28" height="3.94"/><rect class="cls-7" x="58.97" y="169.02" width="3.28" height="3.94"/><rect class="cls-21" x="21.11" y="169.02" width="3.28" height="3.94"/><rect class="cls-7" x="26.49" y="169.02" width="3.28" height="3.94"/><rect class="cls-21" x="53.59" y="199.78" width="3.28" height="3.94"/><rect class="cls-7" x="58.97" y="199.78" width="3.28" height="3.94"/><rect class="cls-21" x="21.11" y="199.78" width="3.28" height="3.94"/><rect class="cls-7" x="26.49" y="199.78" width="3.28" height="3.94"/><rect class="cls-21" x="33.32" y="116.96" width="15.85" height="18.47"/><rect class="cls-39" x="49.41" y="163.45" width="68.01" height="41.64"/><rect class="cls-18" x="49.41" y="168.14" width="68.01" height="32.27"/><line class="cls-16" x1="52.37" y1="168.14" x2="52.37" y2="200.41"/><line class="cls-16" x1="56.51" y1="168.14" x2="56.51" y2="200.41"/><line class="cls-16" x1="60.65" y1="168.14" x2="60.65" y2="200.41"/><line class="cls-16" x1="64.79" y1="168.14" x2="64.79" y2="200.41"/><line class="cls-16" x1="68.93" y1="168.14" x2="68.93" y2="200.41"/><line class="cls-16" x1="73.07" y1="168.14" x2="73.07" y2="200.41"/><line class="cls-16" x1="77.21" y1="168.14" x2="77.21" y2="200.41"/><line class="cls-16" x1="81.35" y1="168.14" x2="81.35" y2="200.41"/><line class="cls-16" x1="85.49" y1="168.14" x2="85.49" y2="200.41"/><line class="cls-16" x1="89.63" y1="168.14" x2="89.63" y2="200.41"/><line class="cls-16" x1="93.77" y1="168.14" x2="93.77" y2="200.41"/><line class="cls-16" x1="97.91" y1="168.14" x2="97.91" y2="200.41"/><line class="cls-16" x1="102.05" y1="168.14" x2="102.05" y2="200.41"/><line class="cls-16" x1="106.19" y1="168.14" x2="106.19" y2="200.41"/><line class="cls-16" x1="110.33" y1="168.14" x2="110.33" y2="200.41"/><line class="cls-16" x1="114.47" y1="168.14" x2="114.47" y2="200.41"/><text class="cls-40" transform="translate(53.59 189.12) scale(1.01 1)"><tspan class="cls-41">A</tspan><tspan x="8.46" y="0">yu</tspan><tspan class="cls-42" x="23.1" y="0">r</tspan><tspan class="cls-43" x="28.14" y="0">v</tspan><tspan x="34.88" y="0">edic</tspan></text><rect class="cls-36" x="57.6" y="128.13" width="47.51" height="35.48"/><rect class="cls-15" x="90.84" y="128.13" width="14.26" height="35.48"/><rect class="cls-21" x="70.34" y="128.13" width="7.34" height="8.13"/><rect class="cls-21" x="95.82" y="128.13" width="4.3" height="8.13"/><polygon class="cls-21" points="78.88 157.64 76.52 154.98 74.17 157.64 75.37 157.64 75.37 160.2 77.67 160.2 77.67 157.64 78.88 157.64"/><polygon class="cls-21" points="73.85 157.64 71.5 154.98 69.14 157.64 70.35 157.64 70.35 160.2 72.64 160.2 72.64 157.64 73.85 157.64"/><rect class="cls-21" y="203.73" width="125.53" height="5.45"/></g></g></svg>