<svg xmlns="http://www.w3.org/2000/svg" viewBox="0 0 510.71 424.19"><defs><style>.cls-1{fill:#def7e3;}.cls-2{fill:#91e2a9;}.cls-3{fill:#ebaf64;}.cls-4{fill:#e48925;}.cls-18,.cls-27,.cls-28,.cls-5{fill:#fff;}.cls-6{fill:#f5f5f5;}.cls-7{fill:#daddf0;}.cls-8{fill:#b8c1ea;}.cls-9{fill:#c6ddcd;}.cls-10,.cls-14,.cls-15{fill:none;stroke:#b8c1ea;stroke-linecap:round;stroke-linejoin:round;stroke-width:2px;}.cls-10{stroke-dasharray:5 10;}.cls-11{fill:#b5c892;}.cls-12{fill:#26244a;}.cls-13{fill:#d36857;}.cls-15{stroke-dasharray:4.92 9.85;}.cls-16{fill:#afc5b6;}.cls-17{fill:#6090df;}.cls-18{font-size:11.43px;}.cls-18,.cls-28{font-family:Montserrat-ExtraBold, Montserrat ExtraBold;font-weight:800;}.cls-19{letter-spacing:0.02em;}.cls-20{fill:#575dba;}.cls-21{fill:#a6b4e2;}.cls-22{fill:#d998b5;}.cls-23{fill:#b76e91;}.cls-24{fill:#ed796a;}.cls-25{fill:#f4b298;}.cls-26{fill:#f2a441;}.cls-27{opacity:0.5;}.cls-28{font-size:15.18px;}.cls-29{letter-spacing:0.01em;}.cls-30{letter-spacing:0.02em;}</style></defs><g id="OBJECTS_" data-name="OBJECTS
"><rect class="cls-1" x="100.96" y="99.89" width="108.12" height="25.33" transform="translate(67.38 -60.24) rotate(27.59)"/><path class="cls-1" d="M161.25,0H510.71a0,0,0,0,1,0,0V416.85a7.31,7.31,0,0,1-7.31,7.31H161.25a0,0,0,0,1,0,0V0A0,0,0,0,1,161.25,0Z"/><polygon class="cls-1" points="99.33 113.93 80.03 75.81 136.01 76.53 99.33 113.93"/><path class="cls-2" d="M435.94,259c2.12-2.84.59-7.39-2.58-9s-7.23-.54-9.83,1.87c2.33-2.46,1.11-6.95-1.82-8.65s-6.77-1.06-9.65.72-5,4.53-7.08,7.22a3.89,3.89,0,0,0-3.7-3.76,6.6,6.6,0,0,0-5.06,2.48,32.58,32.58,0,0,0-5.77,9.51Z" transform="translate(-2.39 -1.24)"/><path class="cls-3" d="M438.4,94.08a12.51,12.51,0,1,1-9.41-15A12.51,12.51,0,0,1,438.4,94.08Z" transform="translate(-2.39 -1.24)"/><path class="cls-4" d="M434.58,93.18a8.59,8.59,0,1,1-5-9.77,8.69,8.69,0,0,1,5,9.77c-.17.78,1,1.12,1.21.33a9.84,9.84,0,1,0-10,7.62,10,10,0,0,0,10-7.62C436,92.73,434.77,92.4,434.58,93.18Z" transform="translate(-2.39 -1.24)"/><path class="cls-4" d="M427.31,94.16a2.52,2.52,0,0,1-1.5.39l-.06.26a.49.49,0,0,1-.22.31.47.47,0,0,1-.67-.15.54.54,0,0,1-.05-.38l.05-.22a2.9,2.9,0,0,1-1.15-.74,2.16,2.16,0,0,1-.56-1,1,1,0,0,1,0-.41.48.48,0,0,1,.23-.32.52.52,0,0,1,.68.1.61.61,0,0,1,.13.31,1.12,1.12,0,0,0,.3.66,1.89,1.89,0,0,0,.62.46l.55-2.18a3.8,3.8,0,0,1-1.18-1,1.45,1.45,0,0,1-.23-1.24,1.7,1.7,0,0,1,.77-1.1,2.38,2.38,0,0,1,1.49-.29l.05-.21a.47.47,0,0,1,.22-.31.41.41,0,0,1,.35-.08.51.51,0,0,1,.31.23.49.49,0,0,1,.06.37l0,.21a2.37,2.37,0,0,1,1.18.77,1.26,1.26,0,0,1,.24,1.09.54.54,0,0,1-.22.34.49.49,0,0,1-.39.07.43.43,0,0,1-.28-.19.45.45,0,0,1-.08-.34.59.59,0,0,0-.17-.44,1.31,1.31,0,0,0-.52-.37l-.49,1.93c1.15.69,1.62,1.48,1.42,2.36A1.79,1.79,0,0,1,427.31,94.16Zm-2-4.53a2.3,2.3,0,0,0,.57.53l.39-1.64a1.21,1.21,0,0,0-.72.13.71.71,0,0,0-.34.47A.63.63,0,0,0,425.33,89.63Zm1.45,3.75a.9.9,0,0,0,.38-.53.78.78,0,0,0-.09-.55,1.85,1.85,0,0,0-.6-.58L426,93.6A1.41,1.41,0,0,0,426.78,93.38Z" transform="translate(-2.39 -1.24)"/><path class="cls-5" d="M415.65,90.15a9.89,9.89,0,0,1,6.78-8.75c.77-.25.44-1.46-.33-1.21a11.22,11.22,0,0,0-7.7,10c0,.81,1.2.8,1.25,0Z" transform="translate(-2.39 -1.24)"/><path class="cls-5" d="M424.08,80.88l.68-.11a.53.53,0,0,0,.21-.11.46.46,0,0,0,.16-.18.49.49,0,0,0,.08-.23.53.53,0,0,0,0-.25.64.64,0,0,0-.29-.37l-.15-.07a.62.62,0,0,0-.33,0l-.68.11a.53.53,0,0,0-.21.11.55.55,0,0,0-.16.18.49.49,0,0,0-.08.23.52.52,0,0,0,0,.25.69.69,0,0,0,.29.38l.15.06a.62.62,0,0,0,.33,0Z" transform="translate(-2.39 -1.24)"/><path class="cls-5" d="M435.27,93.78a9.78,9.78,0,0,1-4.73,5.85c-.7.39-.07,1.47.63,1.08a11.06,11.06,0,0,0,5.31-6.6.63.63,0,0,0-1.21-.33Z" transform="translate(-2.39 -1.24)"/><path class="cls-3" d="M253,44.76a12.51,12.51,0,1,1-14.48-10.17A12.51,12.51,0,0,1,253,44.76Z" transform="translate(-2.39 -1.24)"/><path class="cls-4" d="M249.19,45.49a8.59,8.59,0,1,1-8.29-7.17,8.69,8.69,0,0,1,8.29,7.17c.15.79,1.36.46,1.21-.33a9.84,9.84,0,1,0-6.1,10.92,9.94,9.94,0,0,0,6.1-10.92C250.27,44.37,249.07,44.71,249.19,45.49Z" transform="translate(-2.39 -1.24)"/><path class="cls-4" d="M242.86,49.13a2.56,2.56,0,0,1-1.24.94l0,.26a.5.5,0,0,1-.09.37.44.44,0,0,1-.31.21.47.47,0,0,1-.36-.09.51.51,0,0,1-.19-.33l0-.22a2.94,2.94,0,0,1-1.35-.24,2.15,2.15,0,0,1-.91-.72,1.06,1.06,0,0,1-.18-.38.52.52,0,0,1,.09-.38.52.52,0,0,1,.67-.17.64.64,0,0,1,.25.24,1.13,1.13,0,0,0,.52.49,1.89,1.89,0,0,0,.76.18l-.35-2.22a4,4,0,0,1-1.48-.48,1.53,1.53,0,0,1-.69-1.06,1.68,1.68,0,0,1,.29-1.31,2.35,2.35,0,0,1,1.26-.84l0-.22a.5.5,0,0,1,.08-.37.42.42,0,0,1,.3-.21.5.5,0,0,1,.57.41l0,.21a2.38,2.38,0,0,1,1.39.25,1.27,1.27,0,0,1,.65.91.54.54,0,0,1-.08.4.51.51,0,0,1-.33.22.45.45,0,0,1-.34-.07.49.49,0,0,1-.2-.28.58.58,0,0,0-.32-.34,1.33,1.33,0,0,0-.63-.14l.3,2c1.33.19,2.06.73,2.22,1.63A1.81,1.81,0,0,1,242.86,49.13Zm-3.59-3.41A2.15,2.15,0,0,0,240,46l-.28-1.67a1.28,1.28,0,0,0-.61.4.74.74,0,0,0-.13.56A.69.69,0,0,0,239.27,45.72Zm2.79,2.9a.91.91,0,0,0,.15-.65.72.72,0,0,0-.3-.46,1.8,1.8,0,0,0-.78-.31l.32,1.91A1.37,1.37,0,0,0,242.06,48.62Z" transform="translate(-2.39 -1.24)"/><path class="cls-5" d="M230.58,50a9.94,9.94,0,0,1,2.89-10.82c.61-.53-.28-1.41-.88-.88a11.15,11.15,0,0,0-3.22,12c.27.75,1.47.43,1.21-.34Z" transform="translate(-2.39 -1.24)"/><path class="cls-5" d="M234.66,38.18l.58-.36a.47.47,0,0,0,.18-.16.42.42,0,0,0,.11-.22.42.42,0,0,0,0-.25.48.48,0,0,0-.07-.23l-.1-.12a.63.63,0,0,0-.27-.16l-.17,0a.62.62,0,0,0-.32.09l-.58.36a.44.44,0,0,0-.17.16.45.45,0,0,0-.12.21.53.53,0,0,0,0,.25.53.53,0,0,0,.08.24l.09.12a.61.61,0,0,0,.28.16l.17,0a.59.59,0,0,0,.31-.09Z" transform="translate(-2.39 -1.24)"/><path class="cls-5" d="M250,45.62a9.88,9.88,0,0,1-2,7.24.64.64,0,0,0,0,.88.62.62,0,0,0,.88,0,11,11,0,0,0,2.4-8.12.65.65,0,0,0-.63-.63.63.63,0,0,0-.62.63Z" transform="translate(-2.39 -1.24)"/><path class="cls-2" d="M357.23,52.7c3.16-4.23.89-11-3.84-13.36s-10.75-.81-14.62,2.78c3.46-3.67,1.64-10.35-2.72-12.88S326,27.66,321.69,30.32s-7.47,6.74-10.55,10.73c.17-2.89-2.6-5.39-5.5-5.59s-5.57,1.56-7.53,3.69a48.45,48.45,0,0,0-8.59,14.15Z" transform="translate(-2.39 -1.24)"/><path class="cls-2" d="M481.63,123.41c2.25-3,.63-7.83-2.73-9.51s-7.66-.58-10.41,2c2.46-2.62,1.17-7.37-1.93-9.18s-7.17-1.12-10.23.77-5.31,4.8-7.51,7.65a4.11,4.11,0,0,0-3.91-4,7,7,0,0,0-5.37,2.62,34.55,34.55,0,0,0-6.11,10.08Z" transform="translate(-2.39 -1.24)"/><path class="cls-6" d="M270.07,195.15c3.17-4.23.89-11-3.83-13.36s-10.76-.81-14.63,2.78c3.47-3.67,1.65-10.35-2.71-12.88s-10.07-1.58-14.36,1.08S227.07,179.5,224,183.5c.17-2.9-2.61-5.39-5.5-5.59s-5.57,1.55-7.53,3.69a48.45,48.45,0,0,0-8.59,14.15Z" transform="translate(-2.39 -1.24)"/><rect class="cls-7" x="138.54" y="258.36" width="44.69" height="31.42"/><rect class="cls-6" x="170.79" y="258.36" width="5.11" height="31.42"/><rect class="cls-6" x="145.48" y="258.36" width="8.6" height="10.81"/><path class="cls-8" d="M164.68,260.09v30.63a.63.63,0,0,0,1.25,0V260.09a.63.63,0,0,0-1.25,0Z" transform="translate(-2.39 -1.24)"/><path class="cls-9" d="M214.44,83.68a13,13,0,0,0-11.1,11.54,13.63,13.63,0,0,0,1.58,8,11.44,11.44,0,0,0,1.1,1.58l7.71,9.53a3,3,0,0,0,4.67-.06l5.34-6.93c.5-.65,1.44-1.93,2.25-3.09a13.14,13.14,0,0,0,2.51-7.48v-.06C228.5,89,222.06,82.8,214.44,83.68Zm2.67,18.23a5.58,5.58,0,1,1,4-4.16A5.41,5.41,0,0,1,217.11,101.91Z" transform="translate(-2.39 -1.24)"/><path class="cls-8" d="M296.16,298.08v6.51a.63.63,0,0,0,1.25,0v-6.51a.63.63,0,0,0-1.25,0Z" transform="translate(-2.39 -1.24)"/><rect class="cls-7" x="238" y="307.81" width="22.54" height="9.17" transform="translate(496.15 623.55) rotate(180)"/><rect class="cls-7" x="231.2" y="316.57" width="22.54" height="9.17" transform="translate(482.55 641.07) rotate(180)"/><rect class="cls-9" x="229.45" y="325.72" width="22.54" height="9.17" transform="translate(479.05 659.36) rotate(180)"/><rect class="cls-8" x="246.07" y="316.57" width="22.54" height="9.17" transform="translate(512.3 641.07) rotate(180)"/><rect class="cls-9" x="250.37" y="325.72" width="22.54" height="9.17" transform="translate(520.89 659.36) rotate(180)"/><polygon class="cls-9" points="305.76 324.72 305.76 314.76 300.14 314.76 272.52 314.76 272.52 335.47 304.08 335.47 305.76 324.72"/><polygon class="cls-9" points="299.84 306.57 277.45 306.57 277.45 314.76 299.77 314.76 299.84 306.57"/><rect class="cls-7" x="294.27" y="302.81" width="5.03" height="5.45" transform="translate(591.18 609.83) rotate(180)"/><path class="cls-8" d="M302.15,307.27H280.24a.63.63,0,0,0,0,1.25h21.91a.63.63,0,0,0,0-1.25Z" transform="translate(-2.39 -1.24)"/><path class="cls-2" d="M312.94,326s-3.2,15.26-8.53,17.64H223L215,328h12l3.77,6.77h51.38l7.47-8.82Z" transform="translate(-2.39 -1.24)"/><path class="cls-7" d="M295.81,333.79a3.49,3.49,0,1,0,3.49-3.49A3.49,3.49,0,0,0,295.81,333.79Z" transform="translate(-2.39 -1.24)"/><path class="cls-8" d="M308,315.19H274.91a.63.63,0,0,0,0,1.25H308a.63.63,0,0,0,0-1.25Z" transform="translate(-2.39 -1.24)"/><path class="cls-10" d="M260.1,127.87c-22.36-6.14-48.21,4.24-60.11,24.14s-9.41,69.52,38.44,79.21" transform="translate(-2.39 -1.24)"/><path class="cls-11" d="M338.16,117.94A35.18,35.18,0,0,0,361.05,92a13.28,13.28,0,0,0,0-6.42,6.09,6.09,0,0,0-4.35-4.37c-2.75-.53-5.33,1.42-7.25,3.45-8.25,8.71-13.27,21.44-11.32,33.28" transform="translate(-2.39 -1.24)"/><path class="cls-11" d="M339.06,123.06a29,29,0,0,0,28.43-2,10.88,10.88,0,0,0,3.72-3.76,5,5,0,0,0,0-5.08c-1.31-1.9-3.95-2.24-6.25-2.16-9.88.36-20.18,5-25.87,13" transform="translate(-2.39 -1.24)"/><path class="cls-12" d="M334.34,129.58a165.29,165.29,0,0,1,18-38.15c.43-.68-.65-1.31-1.08-.63a166.75,166.75,0,0,0-18.16,38.44c-.25.77,1,1.1,1.21.34Z" transform="translate(-2.39 -1.24)"/><path class="cls-12" d="M335.82,125.92a56.35,56.35,0,0,1,28.1-9.16c.8,0,.81-1.28,0-1.25a57.53,57.53,0,0,0-28.73,9.34c-.67.44,0,1.52.63,1.07Z" transform="translate(-2.39 -1.24)"/><path class="cls-10" d="M290,267a28.64,28.64,0,0,0,22.66,21.08c4.82.9,11-.29,15.58-2.11,6.7-2.68,15-13.83,14.23-27.16" transform="translate(-2.39 -1.24)"/><path class="cls-13" d="M399.36,115.46a7.77,7.77,0,0,0-9.46,1.68,8.12,8.12,0,0,0-2.07,4.45,6.32,6.32,0,0,0,0,1.15l.37,7.34a1.79,1.79,0,0,0,2.29,1.63l5-1.48c.48-.13,1.38-.42,2.19-.7a7.94,7.94,0,0,0,3.86-2.74l0,0A7.7,7.7,0,0,0,399.36,115.46Zm-5.15,9.78a3.34,3.34,0,1,1,3.4-.6A3.23,3.23,0,0,1,394.21,125.24Z" transform="translate(-2.39 -1.24)"/><path class="cls-13" d="M333.27,317.28a10.14,10.14,0,0,0,6.47-10.73,10.69,10.69,0,0,0-2.59-5.86,8.89,8.89,0,0,0-1.12-1l-7.53-5.94a2.34,2.34,0,0,0-3.57.85l-2.87,6.21c-.27.59-.76,1.73-1.18,2.76a10.36,10.36,0,0,0-.62,6.15v0A10,10,0,0,0,333.27,317.28Zm-5.2-13.46a4.3,4.3,0,0,1,6.09,4,4.25,4.25,0,0,1-2.33,3.87,4.37,4.37,0,0,1-3.76-7.88Z" transform="translate(-2.39 -1.24)"/><path class="cls-14" d="M291.83,113.79l1.78-1.75" transform="translate(-2.39 -1.24)"/><path class="cls-15" d="M300.75,105.25c7.67-6.87,16-12.47,26.35-13a39.36,39.36,0,0,1,41.25,43.86" transform="translate(-2.39 -1.24)"/><path class="cls-14" d="M367.51,140.92c-.19.81-.41,1.62-.66,2.41" transform="translate(-2.39 -1.24)"/><path class="cls-2" d="M163.55,165.62c-15.25,7.31-29.91,14.84-44.72,23a33.41,33.41,0,0,0-4.63,3.06,5.74,5.74,0,0,0-1.08,7.32c1.26,2.07,5.34-1,7.68-1.6l70.91-17.88" transform="translate(-2.39 -1.24)"/><path class="cls-9" d="M162.75,168.59q-22.87,11-45.1,23.23a11.69,11.69,0,0,0-3.9,2.93,4.06,4.06,0,0,0-.45,4.58c1.35,2,4.36,1.64,6.71,1l70.91-17.87" transform="translate(-2.39 -1.24)"/><path class="cls-16" d="M164.34,137.56c-4.58-2.41-9.33-4.69-14.47-5.41s-12.56,1.86-16.36,5.45a17.45,17.45,0,0,0-5,8c-1.13,3.64-1.21,6.85.26,10,1.89,4.07,7.85,8.41,11.71,10.7,20.86,12.34,71.77,33.55,104.36,41.41,3.9.94,11.82-.53,14.62-3.4h0a11.34,11.34,0,0,0-2.66-17.91C229.79,171.63,171.2,141.15,164.34,137.56Z" transform="translate(-2.39 -1.24)"/><path class="cls-2" d="M182.75,155.21c20.81-7.38,41.64-14.76,63-20.4,3.77-1,8.5-1.67,11,1.36,1.7,2.06,1.55,5.13.53,7.59-2.47,6-8.85,9.14-14.7,11.88q-18.31,8.55-36.24,17.93" transform="translate(-2.39 -1.24)"/><path class="cls-16" d="M129.45,188.22A43.5,43.5,0,0,0,136.8,194a13.55,13.55,0,0,0,8.59,2.27,8.24,8.24,0,0,0,6.89-5.13,8.89,8.89,0,0,0-1.4-7.65,21.79,21.79,0,0,0-5.91-5.4c-1.95-1.33-4.11-2.63-6.47-2.59-2.64,0-5,1.76-6.76,3.7a11.83,11.83,0,0,0-2.67,4.21,5.94,5.94,0,0,0,.38,4.85" transform="translate(-2.39 -1.24)"/><path class="cls-12" d="M131.2,187.29a8.86,8.86,0,0,0,9.46-9,.63.63,0,0,0-1.25,0A7.62,7.62,0,0,1,131.2,186c-.8,0-.8,1.2,0,1.25Z" transform="translate(-2.39 -1.24)"/><path class="cls-9" d="M212.87,171s-11.82-4.27-15.73-6.29c-3.18-1.64-10.75-4.64-10.75-4.64s63-25.35,68.27-24,4.46,10.41-3.48,14.77S212.87,171,212.87,171Z" transform="translate(-2.39 -1.24)"/><path class="cls-5" d="M146.74,139.26a29.27,29.27,0,0,0-13.83.25,2.81,2.81,0,0,0-.49.16l-1.25.51a15.29,15.29,0,0,1,4-4.06c1.47-.87,7.44-1.55,11.79,0Z" transform="translate(-2.39 -1.24)"/><path class="cls-5" d="M174.55,152.13l-21.71-10.95v-3.49l21.44,10.78Z" transform="translate(-2.39 -1.24)"/><path class="cls-16" d="M200.52,155.67a48.16,48.16,0,0,0,8.37,6.53,15.36,15.36,0,0,0,9.78,2.6c3.42-.4,6.73-2.6,7.84-5.85a10.07,10.07,0,0,0-1.59-8.71,24.72,24.72,0,0,0-6.73-6.15c-2.22-1.52-4.68-3-7.37-3-3,.05-5.65,2-7.69,4.22a13.35,13.35,0,0,0-3,4.78,6.75,6.75,0,0,0,.43,5.53" transform="translate(-2.39 -1.24)"/><path class="cls-12" d="M202.51,154.53a10,10,0,0,0,10.69-10.18.63.63,0,0,0-1.25,0,8.76,8.76,0,0,1-9.44,8.93c-.8-.05-.8,1.2,0,1.25Z" transform="translate(-2.39 -1.24)"/><path class="cls-17" d="M266.26,163.09c-1.65-1.25-4-.7-5.93,0a148.86,148.86,0,0,0-25.6,13.22L259,198.64c2.3-8.28,6.69-20.34,8.4-28.76C267.93,167.5,268.2,164.56,266.26,163.09Z" transform="translate(-2.39 -1.24)"/><path class="cls-12" d="M221.88,168.43c6.77,3.34,13.49,6.8,20.09,10.46A173.57,173.57,0,0,1,261.39,191c.65.48,1.27-.6.63-1.08a172.67,172.67,0,0,0-19.42-12.11c-6.6-3.66-13.32-7.12-20.09-10.46-.72-.36-1.35.72-.63,1.08Z" transform="translate(-2.39 -1.24)"/><text class="cls-18" transform="translate(183.85 177.47) rotate(23.72)">Expo<tspan class="cls-19" x="23.69" y="0">r</tspan><tspan x="27.7" y="0">t</tspan></text><circle class="cls-2" cx="303.56" cy="194.53" r="77.81"/><path class="cls-6" d="M304.14,117.79a63.18,63.18,0,0,0-35.93,15.09,73.6,73.6,0,0,0-18.85,26.66c-6.5,15.36-7.57,32.55-5,48.91,2.4,15.52,8.11,30.86,18.18,43.07,9.45,11.46,23,19.86,37.93,21.67a46.89,46.89,0,0,0,5.56.35.63.63,0,0,0,0-1.25c-14.88-.12-29-7.25-39.21-17.84-10.75-11.13-17.15-25.85-20.27-40.87-3.25-15.7-3.18-32.4,1.82-47.73a74.34,74.34,0,0,1,17.4-28.91,60.71,60.71,0,0,1,32.75-17.14q2.81-.49,5.66-.76c.8-.08.8-1.33,0-1.25Z" transform="translate(-2.39 -1.24)"/><path class="cls-6" d="M303.83,117.87c-9.55,5.52-17.16,14.45-23,23.66a74.5,74.5,0,0,0-7.33,14.64A88.79,88.79,0,0,0,269.28,175c-1.69,13.51-1.3,27.43-.07,41a129.54,129.54,0,0,0,3.18,19.68c1.47,5.9,3.35,11.89,6.51,17.13,6.25,10.34,16.71,17.09,27.76,21.4.75.29,1.08-.92.34-1.21-9.82-3.82-19.24-9.64-25.41-18.37a52,52,0,0,1-7-15.74,114.15,114.15,0,0,1-3.71-19.21,203.94,203.94,0,0,1-.86-39.29,104.64,104.64,0,0,1,3.43-19.81,66.38,66.38,0,0,1,6.25-14.67,87.44,87.44,0,0,1,11.11-15.43A57.67,57.67,0,0,1,304.46,119a.63.63,0,0,0-.63-1.08Z" transform="translate(-2.39 -1.24)"/><path class="cls-6" d="M307.45,272.92c-2-20-3.13-40-3.72-60q-.9-30.48-.16-61,.39-16.75,1.2-33.5c0-.8-1.21-.8-1.25,0q-1.45,30-1.52,60.14c0,20.33.46,40.67,1.62,61q1,16.73,2.58,33.41c.08.79,1.33.8,1.25,0Z" transform="translate(-2.39 -1.24)"/><path class="cls-6" d="M307.27,274a113.65,113.65,0,0,0,26-28.55,91.12,91.12,0,0,0,13.35-35.66c1.75-12.43.81-25.47-1.7-37.73-2.28-11.16-6.29-22.12-12.68-31.61a61.65,61.65,0,0,0-23.71-21c-1.18-.58-2.38-1.12-3.6-1.63-.74-.31-1.06.9-.33,1.21a59.67,59.67,0,0,1,24.79,19.58c6.57,8.88,10.86,19.26,13.46,30a115.43,115.43,0,0,1,3,37.08,87.81,87.81,0,0,1-11.41,35.44,111.22,111.22,0,0,1-28.09,32.08c-.63.49.26,1.37.88.88Z" transform="translate(-2.39 -1.24)"/><path class="cls-6" d="M304.8,119a48.35,48.35,0,0,1,17.37,3.73,84.28,84.28,0,0,1,17.76,9.63,71.24,71.24,0,0,1,14.29,12.95,56.11,56.11,0,0,1,9.56,18.44c4.85,15,5,31.24,2.33,46.63-2.56,14.79-8.05,30.15-18.25,41.44a67.72,67.72,0,0,1-36,20.35c-1.66.33-3.32.58-5,.75-.79.08-.8,1.33,0,1.25,14-1.4,27.78-8.21,38.11-17.65,11.29-10.32,17.83-25.22,21.19-39.91,3.55-15.51,4.2-32.13.42-47.65a65.11,65.11,0,0,0-8.7-20.86,61.74,61.74,0,0,0-13-13.61,88.42,88.42,0,0,0-17.68-11A60.33,60.33,0,0,0,309,118a34.85,34.85,0,0,0-4.21-.25.63.63,0,0,0,0,1.25Z" transform="translate(-2.39 -1.24)"/><path class="cls-6" d="M229.08,199.56H383.76a.63.63,0,0,0,0-1.25H229.08a.63.63,0,0,0,0,1.25Z" transform="translate(-2.39 -1.24)"/><path class="cls-6" d="M241,155.65H365.27c1.66,0,3.38.13,5,0h.23a.63.63,0,0,0,0-1.25H246.28c-1.67,0-3.38-.12-5,0H241a.63.63,0,0,0,0,1.25Z" transform="translate(-2.39 -1.24)"/><path class="cls-6" d="M246.16,243.47H365.75a.63.63,0,0,0,0-1.25H246.16a.63.63,0,0,0,0,1.25Z" transform="translate(-2.39 -1.24)"/><path class="cls-9" d="M280.59,86.17c-11.88,1.9-21.15,12.43-21.94,24.93a28.2,28.2,0,0,0,4,16.49,22.85,22.85,0,0,0,2.43,3.18l16.85,19a6.18,6.18,0,0,0,9.69-.55L302,134.42c1-1.4,2.81-4.14,4.39-6.62a27.43,27.43,0,0,0,4.52-15.74v-.13C310.22,95.87,296.29,83.65,280.59,86.17Zm7.2,37.54c-8,2.23-15.4-4.81-14-13.32a11.28,11.28,0,0,1,7.9-9c8-2.23,15.4,4.81,14,13.32A11.27,11.27,0,0,1,287.79,123.71Z" transform="translate(-2.39 -1.24)"/><path class="cls-16" d="M278.27,86.17c-11.89,1.9-21.16,12.43-21.95,24.93a28.21,28.21,0,0,0,4,16.49,22.1,22.1,0,0,0,2.43,3.18l16.84,19a6.18,6.18,0,0,0,9.69-.55l10.42-14.84c1-1.4,2.8-4.14,4.39-6.62a27.42,27.42,0,0,0,4.51-15.74v-.13C307.89,95.87,294,83.65,278.27,86.17Zm7.19,37.54c-8,2.23-15.4-4.81-14-13.32a11.28,11.28,0,0,1,7.9-9c8-2.23,15.41,4.81,14,13.32A11.25,11.25,0,0,1,285.46,123.71Z" transform="translate(-2.39 -1.24)"/><path class="cls-5" d="M285.36,191.17c1.67-2.24.47-5.83-2-7.08s-5.7-.43-7.75,1.47c1.83-1.94.87-5.48-1.44-6.83s-5.34-.83-7.62.57a22.74,22.74,0,0,0-5.59,5.69,3.07,3.07,0,0,0-2.91-3,5.26,5.26,0,0,0-4,2,25.65,25.65,0,0,0-4.55,7.5Z" transform="translate(-2.39 -1.24)"/><rect class="cls-3" x="144.01" y="238.13" width="36.82" height="15.33" transform="translate(322.46 490.34) rotate(180)"/><rect class="cls-20" x="132.64" y="252.77" width="37.69" height="15.33" transform="translate(300.58 519.63) rotate(180)"/><rect class="cls-13" x="129.71" y="268.06" width="37.69" height="15.33" transform="translate(294.73 550.22) rotate(180)"/><rect class="cls-13" x="157.51" y="252.77" width="37.69" height="15.33" transform="translate(350.33 519.63) rotate(180)"/><rect class="cls-3" x="164.69" y="268.06" width="37.69" height="15.33" transform="translate(364.69 550.22) rotate(180)"/><path class="cls-4" d="M155.07,238.72V252.3a.63.63,0,0,0,1.25,0V238.72a.63.63,0,0,0-1.25,0Z" transform="translate(-2.39 -1.24)"/><path class="cls-4" d="M161.12,238.72V252.3a.63.63,0,0,0,1.25,0V238.72a.63.63,0,0,0-1.25,0Z" transform="translate(-2.39 -1.24)"/><path class="cls-4" d="M167.17,238.72V252.3a.63.63,0,0,0,1.25,0V238.72a.63.63,0,0,0-1.25,0Z" transform="translate(-2.39 -1.24)"/><path class="cls-4" d="M173.22,238.72V252.3a.63.63,0,0,0,1.25,0V238.72a.63.63,0,0,0-1.25,0Z" transform="translate(-2.39 -1.24)"/><path class="cls-4" d="M149,238.65v13a.63.63,0,0,0,1.25,0v-13a.63.63,0,0,0-1.25,0Z" transform="translate(-2.39 -1.24)"/><path class="cls-4" d="M176.14,268.61v14.6a.63.63,0,0,0,1.25,0v-14.6a.63.63,0,0,0-1.25,0Z" transform="translate(-2.39 -1.24)"/><path class="cls-4" d="M182.19,268.61v14.6a.63.63,0,0,0,1.25,0v-14.6a.63.63,0,0,0-1.25,0Z" transform="translate(-2.39 -1.24)"/><path class="cls-4" d="M188.24,268.61v14.6a.63.63,0,0,0,1.25,0v-14.6a.63.63,0,0,0-1.25,0Z" transform="translate(-2.39 -1.24)"/><path class="cls-4" d="M194.29,268.61v14.6a.63.63,0,0,0,1.25,0v-14.6a.63.63,0,0,0-1.25,0Z" transform="translate(-2.39 -1.24)"/><path class="cls-4" d="M170,268.53v14a.63.63,0,0,0,1.25,0v-14a.63.63,0,0,0-1.25,0Z" transform="translate(-2.39 -1.24)"/><path class="cls-4" d="M171.22,252.91v14.61a.63.63,0,0,0,1.25,0V252.91a.63.63,0,0,0-1.25,0Z" transform="translate(-2.39 -1.24)"/><path class="cls-4" d="M177.27,252.91v14.61a.63.63,0,0,0,1.25,0V252.91a.63.63,0,0,0-1.25,0Z" transform="translate(-2.39 -1.24)"/><path class="cls-4" d="M183.32,253.22v14.3a.63.63,0,0,0,1.25,0v-14.3a.63.63,0,0,0-1.25,0Z" transform="translate(-2.39 -1.24)"/><path class="cls-4" d="M189.37,253.22v14.3a.63.63,0,0,0,1.25,0v-14.3a.63.63,0,0,0-1.25,0Z" transform="translate(-2.39 -1.24)"/><path class="cls-4" d="M165.09,252.84v14a.63.63,0,0,0,1.25,0v-14a.63.63,0,0,0-1.25,0Z" transform="translate(-2.39 -1.24)"/><path class="cls-4" d="M141.59,268.42V283a.63.63,0,0,0,1.25,0V268.42a.63.63,0,0,0-1.25,0Z" transform="translate(-2.39 -1.24)"/><path class="cls-4" d="M147.64,268.42V283a.63.63,0,0,0,1.25,0V268.42a.63.63,0,0,0-1.25,0Z" transform="translate(-2.39 -1.24)"/><path class="cls-4" d="M153.69,268.42V283a.63.63,0,0,0,1.25,0V268.42a.63.63,0,0,0-1.25,0Z" transform="translate(-2.39 -1.24)"/><path class="cls-4" d="M159.74,268.42V283a.63.63,0,0,0,1.25,0V268.42a.63.63,0,0,0-1.25,0Z" transform="translate(-2.39 -1.24)"/><path class="cls-4" d="M135.47,268.35v14a.63.63,0,0,0,1.25,0v-14a.63.63,0,0,0-1.25,0Z" transform="translate(-2.39 -1.24)"/><path class="cls-12" d="M129.71,268.44h72.61a.63.63,0,0,0,0-1.25H129.71a.63.63,0,0,0,0,1.25Z" transform="translate(-2.39 -1.24)"/><path class="cls-12" d="M132.93,253.3h62a.63.63,0,0,0,0-1.25h-62a.63.63,0,0,0,0,1.25Z" transform="translate(-2.39 -1.24)"/><path class="cls-12" d="M241.68,214.66v18.07a.63.63,0,0,0,1.25,0V214.66a.63.63,0,0,0-1.25,0Z" transform="translate(-2.39 -1.24)"/><polygon class="cls-21" points="258.91 267.22 258.91 250.57 249.51 250.57 203.34 250.57 203.34 285.2 256.11 285.2 258.91 267.22"/><polygon class="cls-21" points="249.02 236.89 211.59 236.89 211.59 250.57 248.91 250.57 249.02 236.89"/><rect class="cls-21" x="238.1" y="229.77" width="8.41" height="9.11" transform="translate(482.21 467.4) rotate(180)"/><path class="cls-12" d="M251.27,237.65H214.65a.63.63,0,0,0,0,1.25h36.62a.63.63,0,0,0,0-1.25Z" transform="translate(-2.39 -1.24)"/><path class="cls-16" d="M269.32,268.46S264,294,255.05,298H118.93l-13.31-26.08h14.89a8.75,8.75,0,0,1,7.64,4.49l3.81,6.83h85.9l12.49-14.75Z" transform="translate(-2.39 -1.24)"/><path class="cls-7" d="M240.67,281.56a5.84,5.84,0,1,0,5.83-5.83A5.83,5.83,0,0,0,240.67,281.56Z" transform="translate(-2.39 -1.24)"/><path class="cls-12" d="M261,250.88h-55.3a.63.63,0,0,0,0,1.25H261a.63.63,0,0,0,0-1.25Z" transform="translate(-2.39 -1.24)"/><rect class="cls-7" x="221.67" y="241.22" width="2.96" height="2.96"/><rect class="cls-7" x="218.79" y="256.87" width="2.96" height="2.96"/><rect class="cls-7" x="223.18" y="256.87" width="2.96" height="2.96"/><rect class="cls-7" x="227.56" y="256.87" width="2.96" height="2.96"/><rect class="cls-7" x="231.95" y="256.87" width="2.96" height="2.96"/><rect class="cls-7" x="236.34" y="256.87" width="2.96" height="2.96"/><rect class="cls-7" x="240.72" y="256.87" width="2.96" height="2.96"/><rect class="cls-7" x="245.11" y="256.87" width="2.96" height="2.96"/><rect class="cls-7" x="249.49" y="256.87" width="2.96" height="2.96"/><rect class="cls-7" x="253.88" y="256.87" width="2.96" height="2.96"/><rect class="cls-7" x="240.16" y="241.22" width="2.96" height="2.96"/><rect class="cls-7" x="226.52" y="241.22" width="12" height="2.96"/><path class="cls-22" d="M76.12,338.24s37.17-46.38,58.94-46.38c18.42,0,73.91,2.25,90.57,2.94,4.44.19,7.38,6.47,6,10.7-1,3.05-3.57,5.21-10.72,7.81a87.5,87.5,0,0,1-34.55,4.87l-37.69,19.5-21.45,30.54S84.57,355.79,76.12,338.24Z" transform="translate(-2.39 -1.24)"/><path class="cls-22" d="M263.57,304.43a9.71,9.71,0,0,0-6.12-5.51,28.9,28.9,0,0,0-8.4-1.17l-31.46-1.25-75,41.28c36.56-2.82,73.44-6.61,108.16-18.42,3.48-1.18,7-2.5,9.73-5S264.81,307.89,263.57,304.43Z" transform="translate(-2.39 -1.24)"/><path class="cls-23" d="M262.86,305.21c-5.75.18-12.54,3-14.94,8.63a10.56,10.56,0,0,0-.76,5.33c.08.79,1.33.8,1.25,0-.85-7.92,7.55-12.49,14.45-12.71a.63.63,0,0,0,0-1.25Z" transform="translate(-2.39 -1.24)"/><path class="cls-23" d="M181.61,323.2l2.5-4.2-.54.31c5.18-.49,10.39-.58,15.58-1a99.31,99.31,0,0,0,15-2.36c4.62-1.1,9.56-2.26,13.71-4.65a9.69,9.69,0,0,0,4.68-6.44c.72-3,.27-6.29-2.05-8.45a10.14,10.14,0,0,0-6.82-2.41l-13.13-.48-12.27-.44c-.8,0-.8,1.22,0,1.25l25,.9c2.6.09,5.26.58,7,2.73,2.12,2.63,1.58,6.56,0,9.34-2,3.64-7,4.85-10.76,5.93a104.27,104.27,0,0,1-15.63,3.34c-6,.77-12.08.84-18.12,1.3-.79.06-2.11-.12-2.68.5a6.28,6.28,0,0,0-.65,1.09l-1.85,3.11a.63.63,0,0,0,1.08.63Z" transform="translate(-2.39 -1.24)"/><path class="cls-23" d="M217.37,313c-2-3.46-.33-7.65,2.68-9.89,3.33-2.48,7.62-2.78,11.62-2.45.8.07.79-1.18,0-1.25-4.52-.38-9.32.13-12.91,3.14-3.19,2.66-4.62,7.33-2.47,11.08a.63.63,0,0,0,1.08-.63Z" transform="translate(-2.39 -1.24)"/><path class="cls-23" d="M145.22,332.45a25.51,25.51,0,0,1,3.08,5,.63.63,0,0,0,.85.22.65.65,0,0,0,.23-.86,27.7,27.7,0,0,0-3.27-5.22.63.63,0,0,0-.89.88Z" transform="translate(-2.39 -1.24)"/><path class="cls-2" d="M2.39,425.39l91.09-118.2,52.12,44.07L94.81,425.39S5,425.48,2.39,425.39Z" transform="translate(-2.39 -1.24)"/><path class="cls-5" d="M33.73,386.62c11.09-1,22.51-1,33.25,2.28a43.53,43.53,0,0,1,23.61,17.74,37.11,37.11,0,0,1,6,14.92c.12.8,1.33.46,1.21-.33-1.49-9.8-7.53-18.78-15-25.13-8.24-7-18.7-10-29.34-11a114.09,114.09,0,0,0-19.82.24c-.8.07-.8,1.32,0,1.25Z" transform="translate(-2.39 -1.24)"/><path class="cls-5" d="M11.89,414.93c9.83-2.48,19.06,2.47,25,10.15.49.64,1.37-.25.88-.88-6.25-8-16-13.06-26.24-10.48a.63.63,0,0,0,.33,1.21Z" transform="translate(-2.39 -1.24)"/><circle class="cls-5" cx="124.1" cy="353.28" r="6.44"/><path class="cls-5" d="M68.83,337.13c4.27,6,11.47,8.86,18.62,9.42,9.43.74,18.61-2.3,27.79-3.93,5.54-1,11.23-1.46,16.8-.36.78.15,1.12-1.05.33-1.21-9-1.76-17.9.39-26.65,2.27-8.35,1.79-17.18,3.34-25.49.51a20.65,20.65,0,0,1-10.32-7.33c-.47-.65-1.55,0-1.08.63Z" transform="translate(-2.39 -1.24)"/><path class="cls-5" d="M50,364c11.41,5.06,24.22,6.08,36.56,5.52,8.91-.4,17.63-1.92,26.43-3.23,7.14-1.07,15.19-1.5,21.72,2.09.7.38,1.33-.7.63-1.08-9.18-5.05-20.11-2.58-29.91-1C94.36,368,83.11,369,72,368.07A66.31,66.31,0,0,1,50.59,363c-.73-.33-1.37.75-.63,1.08Z" transform="translate(-2.39 -1.24)"/><circle class="cls-3" cx="346.69" cy="216.12" r="19.25" transform="translate(-59.03 149.87) rotate(-22.78)"/><path class="cls-4" d="M360.25,216.12a13.55,13.55,0,1,1-11-13.32,13.7,13.7,0,0,1,11,13.32.63.63,0,0,0,1.25,0,14.81,14.81,0,1,0-11.9,14.52,15,15,0,0,0,11.9-14.52A.63.63,0,0,0,360.25,216.12Z" transform="translate(-2.39 -1.24)"/><path class="cls-4" d="M349.46,220.11a3.88,3.88,0,0,1-2.11,1.1v.4a.74.74,0,0,1-.23.54.71.71,0,0,1-.53.24.68.68,0,0,1-.52-.23.77.77,0,0,1-.21-.55v-.35a4.43,4.43,0,0,1-2-.72,3.22,3.22,0,0,1-1.19-1.34,1.57,1.57,0,0,1-.16-.61.75.75,0,0,1,.23-.56.78.78,0,0,1,.57-.24.77.77,0,0,1,.49.17.89.89,0,0,1,.31.42,1.78,1.78,0,0,0,.66.88,3,3,0,0,0,1.1.48l.06-3.47a6.06,6.06,0,0,1-2.11-1.11,2.28,2.28,0,0,1-.76-1.8,2.57,2.57,0,0,1,.77-1.9,3.63,3.63,0,0,1,2.14-.94v-.34a.73.73,0,0,1,.22-.54.65.65,0,0,1,.51-.24.71.71,0,0,1,.53.24.74.74,0,0,1,.23.54v.32a3.7,3.7,0,0,1,2,.74,2,2,0,0,1,.74,1.56.84.84,0,0,1-.23.59.75.75,0,0,1-.55.23.71.71,0,0,1-.49-.18.74.74,0,0,1-.24-.48.93.93,0,0,0-.39-.61,2.28,2.28,0,0,0-.92-.38l-.06,3.08c1.95.63,2.93,1.65,2.93,3A2.75,2.75,0,0,1,349.46,220.11ZM344.94,214a3.17,3.17,0,0,0,1,.6l0-2.6a1.86,1.86,0,0,0-1,.44,1.1,1.1,0,0,0-.35.82A1,1,0,0,0,344.94,214Zm3.45,5.13a1.34,1.34,0,0,0,.39-.94,1.12,1.12,0,0,0-.32-.78,2.81,2.81,0,0,0-1.1-.67v3A2.05,2.05,0,0,0,348.39,219.12Z" transform="translate(-2.39 -1.24)"/><path class="cls-5" d="M330.15,218.07a15.58,15.58,0,0,1,7.36-15.81.63.63,0,0,0-.63-1.08,16.89,16.89,0,0,0-7.94,17.23c.13.79,1.34.45,1.21-.34Z" transform="translate(-2.39 -1.24)"/><path class="cls-5" d="M339.66,201l1-.4a.43.43,0,0,0,.21-.11.44.44,0,0,0,.16-.17.65.65,0,0,0,.07-.49.67.67,0,0,0-.29-.37l-.15-.06a.62.62,0,0,0-.33,0l-1,.39a.53.53,0,0,0-.21.11.58.58,0,0,0-.17.18.66.66,0,0,0-.06.48.65.65,0,0,0,.29.38l.15.06a.62.62,0,0,0,.33,0Z" transform="translate(-2.39 -1.24)"/><path class="cls-5" d="M361.49,216.79a15.45,15.45,0,0,1-5.2,10.61c-.61.54.28,1.42.88.89a16.75,16.75,0,0,0,5.57-11.5c.05-.81-1.2-.8-1.25,0Z" transform="translate(-2.39 -1.24)"/><path class="cls-24" d="M354.7,163.29a31.62,31.62,0,0,1-16,2c-.79-.11-1.13,1.09-.34,1.21a33,33,0,0,0,16.69-2c.74-.29.42-1.5-.34-1.21Z" transform="translate(-2.39 -1.24)"/><path class="cls-25" d="M471,163.37c-2.26.45-44.76,1.48-44.76,1.48s-23.5-27.11-51.51-19.89-42.92,32.09-42,43.83,11.75,14.46,17.62,8.14,6.33-20.79,19.43-20.79,24.13,2.53,21.19,19.2c-1.76,9.95,34.84,22.82,34.84,22.82l42.75,4.16C472.88,199.4,475.79,177.82,471,163.37Z" transform="translate(-2.39 -1.24)"/><path class="cls-25" d="M360.41,231.71c-3.09-2.75-2.21-6.57.27-9.88s6.44-5.1,10.29-6.58,7.9-2.81,11-5.54,5-6.89,7.23-10.58,5.12-7.35,9.26-8.46,8.51.58,12.27,2.65a59.8,59.8,0,0,1,11.69,8.41,12.7,12.7,0,0,1,3.9,5.36,9.22,9.22,0,0,1-1.64,7.76,22.13,22.13,0,0,1-6.1,5.41c-16.49,10.9-50.85,19.64-58.17,11.45" transform="translate(-2.39 -1.24)"/><path class="cls-25" d="M360.37,229.15A22.3,22.3,0,0,1,368.1,225a12.19,12.19,0,0,1,8.62.61,8.44,8.44,0,0,1,4.76,7" transform="translate(-2.39 -1.24)"/><path class="cls-25" d="M321.21,159.25c-3.21.78-6.51,1.66-9.12,3.68s-4.4,5.48-3.5,8.66c.81,2.88,3.56,4.82,6.37,5.84,8.18,3,17.19,0,25.38-2.87l23.27-23.13C349.4,153.65,335.18,155.87,321.21,159.25Z" transform="translate(-2.39 -1.24)"/><path class="cls-25" d="M385.8,152A158.64,158.64,0,0,0,326,144.67c-2.51.18-5.21.49-7.09,2.17-2.42,2.16-2.64,6.09-1.14,9s4.34,4.84,7.31,6.14" transform="translate(-2.39 -1.24)"/><path class="cls-25" d="M410,154.05a158.61,158.61,0,0,0-56.69-20.29c-2.49-.38-5.19-.67-7.39.56-2.84,1.57-3.92,5.36-3.09,8.5s3.17,5.68,5.79,7.6" transform="translate(-2.39 -1.24)"/><path class="cls-24" d="M333.86,183.36a50.33,50.33,0,0,1,18.7-26.8c6.78-4.83,13.75-9.3,22-11.06a47.64,47.64,0,0,1,19.14.17c.78.16,1.12-1,.33-1.2-10.56-2.09-21.16-1.12-30.8,3.8a84.49,84.49,0,0,0-10.4,6.55,52.14,52.14,0,0,0-11.63,11.05A54.07,54.07,0,0,0,332.66,183c-.24.77,1,1.1,1.2.33Z" transform="translate(-2.39 -1.24)"/><path class="cls-24" d="M356.85,152c-14.11,1.23-28.26,3.49-41.5,8.68-2.65,1-5.13,2.22-6.66,4.75a7.88,7.88,0,0,0-.27,7.48c2.07,4.52,7,6.43,11.67,6.6a41.14,41.14,0,0,0,10-1.34c2-.43,4-.9,6-1.46a.62.62,0,0,0-.33-1.2,79.18,79.18,0,0,1-12.63,2.64c-4.5.48-9.92-.36-12.72-4.31a7,7,0,0,1-.62-7.78c1.64-2.7,4.61-3.71,7.42-4.75a119.78,119.78,0,0,1,18.12-5.1,192.6,192.6,0,0,1,21.54-3c.8-.07.8-1.32,0-1.25Z" transform="translate(-2.39 -1.24)"/><path class="cls-24" d="M372,144.89a135.49,135.49,0,0,0-19.81-1.53c-5.52-.07-11,.15-16.55,0a64,64,0,0,0-10.17.4c-3.83.51-7.38,1.81-8.8,5.78a8,8,0,0,0,.68,6.78c.78,1.33,2,3.11,3.65,3.52a.62.62,0,0,0,.34-1.2c-1.34-.35-2.43-2.06-3-3.15a6.74,6.74,0,0,1-.11-6.35c1.83-3.58,5.8-4.06,9.39-4.36a79.48,79.48,0,0,1,8.31-.17c5.12.12,10.25-.07,15.36,0a135.2,135.2,0,0,1,20.4,1.5c.79.13,1.13-1.08.34-1.21Z" transform="translate(-2.39 -1.24)"/><path class="cls-24" d="M344.21,136.83a12.26,12.26,0,0,0,14.37-1c.62-.52-.27-1.4-.88-.88a11,11,0,0,1-12.86.76c-.67-.44-1.3.64-.63,1.08Z" transform="translate(-2.39 -1.24)"/><path class="cls-24" d="M360.92,180.32a20.44,20.44,0,0,1,11.12-6c.79-.14.45-1.35-.34-1.2A21.44,21.44,0,0,0,360,179.44c-.55.58.33,1.46.88.88Z" transform="translate(-2.39 -1.24)"/><path class="cls-24" d="M416.76,222a36.94,36.94,0,0,0,16.36-14.23c.43-.69-.66-1.32-1.08-.63A35.92,35.92,0,0,1,416.13,221c-.74.32-.1,1.4.63,1.08Z" transform="translate(-2.39 -1.24)"/><path class="cls-24" d="M338.89,197.29c1.5-3.22,2.74-6.95,1.43-10.45a6.41,6.41,0,0,0-7.14-4.35.63.63,0,0,0-.44.44c-1.15,4.46-.59,9.91,2.24,13.63a12.86,12.86,0,0,0,5.18,4c.73.32,1.37-.76.63-1.08a11.52,11.52,0,0,1-6.68-7.4,17.49,17.49,0,0,1-.44-7.27,11.43,11.43,0,0,1,.28-1.51l-.44.44c2.82-.59,5.17,1.67,5.84,4.24.78,3-.28,6-1.54,8.72-.34.72.74,1.36,1.08.63Z" transform="translate(-2.39 -1.24)"/><path class="cls-24" d="M317.43,149.6a8.87,8.87,0,0,0,8.22,1.28,9,9,0,0,0,5.42-5.6c.25-.76-.95-1.09-1.21-.33a7.52,7.52,0,0,1-11.8,3.57c-.64-.48-1.26.61-.63,1.08Z" transform="translate(-2.39 -1.24)"/><path class="cls-24" d="M308.66,170.23c3-.18,6.14-.75,8.55-2.66a7.68,7.68,0,0,0,3-7.25c-.14-.79-1.35-.45-1.2.33a6.5,6.5,0,0,1-2.84,6.13,14.08,14.08,0,0,1-7.53,2.2c-.8.05-.81,1.3,0,1.25Z" transform="translate(-2.39 -1.24)"/><path class="cls-24" d="M359.17,229c2.63-.25,5.47-.41,7.92.76,2.07,1,3.84,3.07,3.49,5.5-.11.78,1.09,1.12,1.21.33a6.67,6.67,0,0,0-3.56-6.65c-2.76-1.55-6-1.48-9.06-1.19-.8.08-.81,1.33,0,1.25Z" transform="translate(-2.39 -1.24)"/><path class="cls-2" d="M445.36,161.35s2.09,43.65,0,66.42l67.74,4V158.07Z" transform="translate(-2.39 -1.24)"/><path class="cls-6" d="M472.17,212.62a6,6,0,1,1-6-6A6,6,0,0,1,472.17,212.62Z" transform="translate(-2.39 -1.24)"/><path class="cls-6" d="M446.62,211.72c11.4-1.41,18.35-11.3,24-20.28q6.52-10.42,13-20.88,3.36-5.38,6.71-10.76c.43-.69-.65-1.32-1.08-.64q-6.24,10-12.46,20l-6,9.63c-2.74,4.38-5.43,8.85-8.87,12.73-4,4.48-9.2,8.21-15.3,9-.79.1-.8,1.35,0,1.25Z" transform="translate(-2.39 -1.24)"/><path class="cls-6" d="M471.71,229.44c1-1.92,1.89-3.94,2.85-5.9,1.54-3.13,3.2-6.21,5-9.18,4.4-7.07,10-13.9,17.53-17.79a26.23,26.23,0,0,1,15-2.8c.8.08.79-1.17,0-1.25-18.41-2-30.67,14.6-38,29.19-1.18,2.35-2.21,4.79-3.45,7.1-.38.71.69,1.34,1.08.63Z" transform="translate(-2.39 -1.24)"/><path class="cls-6" d="M446.42,184.05A24.84,24.84,0,0,0,464,161a.63.63,0,0,0-1.25,0,23.54,23.54,0,0,1-16.62,21.86.63.63,0,0,0,.33,1.21Z" transform="translate(-2.39 -1.24)"/><rect class="cls-16" x="179.6" y="339.26" width="58.22" height="40.93"/><rect class="cls-6" x="221.61" y="339.26" width="6.65" height="40.93"/><rect class="cls-6" x="188.64" y="339.26" width="11.2" height="14.08"/><path class="cls-8" d="M213.12,341.13V381a.63.63,0,0,0,1.25,0V341.13a.63.63,0,0,0-1.25,0Z" transform="translate(-2.39 -1.24)"/><ellipse class="cls-12" cx="472.06" cy="338.68" rx="11.26" ry="11.05"/><rect class="cls-9" x="391.62" y="262.92" width="16.17" height="62.53"/><rect class="cls-20" x="348.15" y="324.33" width="30.2" height="14.68"/><path class="cls-16" d="M341.71,331.61V317.12a8.47,8.47,0,0,1,7-8.15l11.78-2.4,7.88-15.43c1.63-3.25,4.42-4.34,8.23-4.39l29.05-.36v50.08H378.54s0-10.45-13.26-10.24-13.59,8.59-13.59,8.59h-10Z" transform="translate(-2.39 -1.24)"/><path class="cls-12" d="M352.28,329.17c3-2.81,5.67-3.94,9.8-4.92a23,23,0,0,1,13.63,1.32,14.11,14.11,0,0,1,7.44,7.92,1.67,1.67,0,0,0,1.6,1.08h23.41v5.69H380.73a1.72,1.72,0,0,1-1.74-1.44c-.45-3.33-2.59-11.29-12.86-11.1-14.17.26-12.53,13.8-12.53,13.8h-5.43s-4.62.55-4.62-4Z" transform="translate(-2.39 -1.24)"/><path class="cls-7" d="M380.18,289.42a2.61,2.61,0,0,0-1.5-.23l-9.19.21a6.93,6.93,0,0,0-.9,1.28l-8.13,15.89c2.36,0,6.69-.12,9.05-.09a4.93,4.93,0,0,0,1.67-.18,4.35,4.35,0,0,0,2-1.91c2.68-4,4.41-8.1,6.88-12.2a4,4,0,0,0,.62-1.4A1.37,1.37,0,0,0,380.18,289.42Z" transform="translate(-2.39 -1.24)"/><path class="cls-7" d="M398.46,303.18,398,291.74a2,2,0,0,0-.51-1.52,2.36,2.36,0,0,0-1.58-.38H391a9.19,9.19,0,0,0-4.09.63,7.36,7.36,0,0,0-2.79,2.8c-2.53,4.06-4,6.87-5.93,10.37a1.93,1.93,0,0,0,1.81,2.81c5,.05,11.25.4,15.52.14a3.8,3.8,0,0,0,2.19-.59A3.27,3.27,0,0,0,398.46,303.18Z" transform="translate(-2.39 -1.24)"/><polyline class="cls-7" points="403.23 313.23 403.23 321.07 339.32 321.07 339.32 313.23"/><rect class="cls-2" x="407.79" y="262.92" width="102.92" height="62.53"/><ellipse class="cls-12" cx="363.74" cy="338.68" rx="11.26" ry="11.05"/><path class="cls-2" d="M372.4,339.92a6.27,6.27,0,1,1-6.27-6.16A6.21,6.21,0,0,1,372.4,339.92Z" transform="translate(-2.39 -1.24)"/><ellipse class="cls-12" cx="491.67" cy="338.68" rx="11.26" ry="11.05"/><path class="cls-2" d="M500.33,339.92a6.27,6.27,0,1,1-6.27-6.16A6.22,6.22,0,0,1,500.33,339.92Z" transform="translate(-2.39 -1.24)"/><rect class="cls-12" x="403.23" y="325.53" width="107.48" height="11.04"/><rect class="cls-26" x="418.79" y="327.63" width="5.04" height="2.21" rx="0.76"/><rect class="cls-26" x="442.9" y="327.63" width="5.04" height="2.21" rx="0.76"/><rect class="cls-26" x="467.02" y="327.63" width="5.04" height="2.21" rx="0.76"/><rect class="cls-26" x="491.14" y="327.63" width="5.04" height="2.21" rx="0.76"/><rect class="cls-12" x="393.72" y="310.19" width="3.37" height="6.71" rx="1.09"/><path class="cls-27" d="M380.13,300l8.67,6.59c2.44,0,7.63.37,8.66-.42l-14.67-10.77Z" transform="translate(-2.39 -1.24)"/><polygon class="cls-27" points="362.15 297.42 370.43 303.71 373.22 299.33 364.53 292.7 362.15 297.42"/><polygon class="cls-27" points="365.44 291.2 374.05 297.73 375 295.95 366.26 289.57 365.44 291.2"/><polygon class="cls-27" points="381.68 292.04 396.08 302.85 395.98 299.8 383.07 290.26 381.68 292.04"/><path class="cls-12" d="M383.4,309h1.19a10.77,10.77,0,0,0,1.27,0,2.55,2.55,0,0,0,2.13-1.61,4,4,0,0,0,.14-1.47v-1.43a.62.62,0,0,0-.62-.62.63.63,0,0,0-.63.62c0,.75.05,1.52,0,2.27,0-.14,0,0,0,0l0,.13a1,1,0,0,0,0,.1c-.05.15.07-.1,0,0l-.12.2c-.05.09.1-.1,0,0l-.11.12-.1.09c-.08.07.12-.08,0,0l-.21.12-.12.06c.1,0,0,0,0,0l-.33.08c.12,0,0,0,0,0H383.4a.63.63,0,1,0,0,1.25Z" transform="translate(-2.39 -1.24)"/><path class="cls-12" d="M388.17,293v-1.24a5,5,0,0,0-.09-1.44,2.53,2.53,0,0,0-1.95-1.72,7.93,7.93,0,0,0-1.38-.05h-1.39a.62.62,0,0,0-.62.62.63.63,0,0,0,.62.63h2.46l.09,0,.25.07c.1,0-.12-.07,0,0l.15.08.11.08c.09.05-.1-.1,0,0s.11.11.17.17.09.12,0,0l.06.08a.75.75,0,0,1,.07.12s.08.17.05.1,0,.08,0,.07l0,.11s0,.19,0,.05a.41.41,0,0,1,0,.11V293a.63.63,0,1,0,1.25,0Z" transform="translate(-2.39 -1.24)"/><rect class="cls-16" x="382.77" y="290.61" width="2.7" height="13.61" rx="1.35"/><path class="cls-12" d="M351.81,337.47H340.69a1.69,1.69,0,0,1-1.75-1.63v-5.33a1.69,1.69,0,0,1,1.75-1.64h15.44Z" transform="translate(-2.39 -1.24)"/><text class="cls-28" transform="translate(430.28 299.78)"><tspan class="cls-29">I</tspan><tspan x="3.78" y="0">mpo</tspan><tspan class="cls-30" x="33.41" y="0">r</tspan><tspan x="38.74" y="0">t</tspan></text><rect class="cls-16" x="370.38" y="367.46" width="43.84" height="30.81"/><rect class="cls-6" x="402.01" y="367.46" width="5.01" height="30.81"/><rect class="cls-6" x="377.19" y="367.46" width="8.43" height="10.6"/><path class="cls-8" d="M396.06,369.17v30.05a.63.63,0,0,0,1.25,0V369.17a.63.63,0,0,0-1.25,0Z" transform="translate(-2.39 -1.24)"/><rect class="cls-16" x="290.76" y="362.11" width="51.44" height="36.16"/><rect class="cls-7" x="327.88" y="362.11" width="5.88" height="36.16"/><rect class="cls-7" x="298.75" y="362.11" width="9.89" height="12.44"/><path class="cls-12" d="M320.59,363.91v35.26a.63.63,0,0,0,1.25,0V363.91a.63.63,0,0,0-1.25,0Z" transform="translate(-2.39 -1.24)"/><rect class="cls-16" x="333.84" y="378.06" width="28.75" height="20.21"/><rect class="cls-7" x="354.58" y="378.06" width="3.28" height="20.21"/><rect class="cls-7" x="338.3" y="378.06" width="5.53" height="6.95"/><path class="cls-12" d="M351.29,379.61v19.71a.63.63,0,0,0,1.25,0V379.61a.63.63,0,0,0-1.25,0Z" transform="translate(-2.39 -1.24)"/></g></svg>